<?xml version="1.0" encoding="utf-8"?>
<!-- Generator: Adobe Illustrator 15.0.2, SVG Export Plug-In . SVG Version: 6.00 Build 0)  -->
<!DOCTYPE svg PUBLIC "-//W3C//DTD SVG 1.1//EN" "http://www.w3.org/Graphics/SVG/1.1/DTD/svg11.dtd">
<svg version="1.1" id="Layer_1" xmlns="http://www.w3.org/2000/svg" xmlns:xlink="http://www.w3.org/1999/xlink" x="0px" y="0px"
	 width="213px" height="151px" viewBox="0 0 213 151" enable-background="new 0 0 213 151" xml:space="preserve">
<g>
	<defs>
		<rect id="SVGID_1_" width="213" height="151"/>
	</defs>
	<clipPath id="SVGID_2_">
		<use xlink:href="#SVGID_1_"  overflow="visible"/>
	</clipPath>
	<rect x="0.672" y="0.533" clip-path="url(#SVGID_2_)" fill="#FFFFFF" width="211.544" height="150.02"/>
	<path clip-path="url(#SVGID_2_)" d="M75.236,88.166c0,1.176-0.771,1.639-1.386,1.639c-0.812,0-1.205-0.574-1.205-1.428v-4.901
		h-1.147v5.392c0,1.203,0.67,1.817,1.904,1.817c0.741,0,1.413-0.349,1.792-0.991h0.042v0.854h1.218
		c-0.042-0.492-0.071-0.98-0.071-1.471v-5.601h-1.147V88.166"/>
	<path clip-path="url(#SVGID_2_)" d="M83.44,90.547v-4.9c0-1.399-0.378-2.311-1.89-2.311c-0.911,0-1.443,0.252-1.89,1.05h-0.055
		v-0.91h-1.219c0.042,0.49,0.069,0.979,0.069,1.472v5.6h1.15v-4.188c0-0.967,0.181-2.085,1.44-2.085
		c0.981,0,1.247,0.616,1.247,1.372v4.9H83.44"/>
	<path clip-path="url(#SVGID_2_)" d="M89.082,84.189h-0.041c-0.393-0.559-0.882-0.854-1.554-0.854c-2.282,0-2.338,2.03-2.338,3.795
		c0,3.107,1.147,3.554,2.282,3.554c0.741,0,1.231-0.321,1.622-0.979h0.029v0.842h1.148V80.439h-1.148V84.189 M89.082,86.725
		c0,1.426,0,3.023-1.288,3.023c-1.442,0-1.442-1.541-1.442-2.604c0-1.891,0.169-2.87,1.401-2.87
		C89.026,84.274,89.082,85.787,89.082,86.725z"/>
	<polyline clip-path="url(#SVGID_2_)" points="96.347,90.547 96.347,85.926 99.876,85.926 99.876,84.805 96.347,84.805 
		96.347,81.557 100.071,81.557 100.071,80.439 95.058,80.439 95.058,90.547 96.347,90.547 	"/>
	<path clip-path="url(#SVGID_2_)" d="M103.596,90.685c1.498,0,2.688-0.446,2.688-3.569c0-2.071-0.239-3.779-2.688-3.779
		c-2.45,0-2.688,1.708-2.688,3.779C100.908,90.238,102.097,90.685,103.596,90.685 M103.596,89.748c-1.19,0-1.484-0.826-1.484-3.123
		c0-1.932,0.6-2.351,1.484-2.351c0.882,0,1.485,0.419,1.485,2.351C105.081,88.922,104.786,89.748,103.596,89.748z"/>
	<path clip-path="url(#SVGID_2_)" d="M109.225,83.476h-1.148v7.071h1.148v-4.172c0-0.954,0.322-1.92,1.594-1.92
		c0.211,0,0.408,0.044,0.617,0.072v-1.191c-1.119,0-1.704,0.125-2.182,1.205h-0.029V83.476"/>
	<path clip-path="url(#SVGID_2_)" d="M117.168,88.529c0-2.154-3.529-2.127-3.529-3.373c0-0.615,0.479-0.951,1.094-0.951
		c0.727,0,1.121,0.391,1.105,1.132h1.275c0.098-1.398-0.98-2.001-2.24-2.001c-1.988,0-2.438,1.191-2.438,1.932
		c0,2.115,3.53,2.143,3.53,3.402c0,0.729-0.531,1.078-1.221,1.078c-1.16,0-1.174-0.953-1.174-1.357h-1.301
		c-0.045,1.623,0.91,2.294,2.436,2.294C116.103,90.685,117.168,90.084,117.168,88.529"/>
	<path clip-path="url(#SVGID_2_)" d="M123.506,85.743c0.072-1.582-0.756-2.407-2.17-2.407c-2.449,0-2.688,1.708-2.688,3.779
		c0,3.123,1.191,3.569,2.688,3.569c0.787,0,2.271-0.503,2.228-2.491h-1.204c0.041,1.275-0.758,1.555-1.023,1.555
		c-1.188,0-1.483-0.826-1.483-3.123c0-1.932,0.603-2.351,1.483-2.351c0.437,0,1.008,0.308,0.982,1.469H123.506"/>
	<path clip-path="url(#SVGID_2_)" d="M130.395,90.547v-5.013c0-1.596-0.672-2.198-1.875-2.198c-0.924,0-1.454,0.224-1.918,1.05
		h-0.055v-3.946h-1.148v10.107h1.148v-4.16c0-1.188,0.293-2.112,1.439-2.112c0.982,0,1.26,0.616,1.26,1.483v4.789H130.395"/>
	<path clip-path="url(#SVGID_2_)" d="M136.191,88.166c0,1.176-0.768,1.639-1.387,1.639c-0.813,0-1.203-0.574-1.203-1.428v-4.901
		h-1.146v5.392c0,1.203,0.67,1.817,1.904,1.817c0.742,0,1.413-0.349,1.791-0.991h0.041v0.854h1.219
		c-0.043-0.492-0.07-0.98-0.07-1.471v-5.601h-1.148V88.166"/>
	<path clip-path="url(#SVGID_2_)" d="M144.395,90.547v-4.9c0-1.399-0.377-2.311-1.889-2.311c-0.908,0-1.44,0.252-1.891,1.05h-0.055
		v-0.91h-1.217c0.039,0.49,0.068,0.979,0.068,1.472v5.6h1.148v-4.188c0-0.967,0.182-2.085,1.441-2.085
		c0.98,0,1.246,0.616,1.246,1.372v4.9H144.395"/>
	<path clip-path="url(#SVGID_2_)" d="M150.039,84.344h-0.029c-0.321-0.685-0.908-1.008-1.65-1.008c-0.572,0-2.211,0.209-2.211,3.459
		c0,2.1,0.375,3.752,2.295,3.752c0.615,0,1.26-0.322,1.553-0.883h0.043v1.471c0,0.727-0.433,1.218-1.232,1.218
		c-0.629,0-1.064-0.364-1.075-1.022h-1.29c-0.098,1.303,0.967,1.889,2.141,1.889c1.553,0,2.606-0.377,2.606-1.959v-7.784h-1.149
		V84.344 M150.066,86.975c0,0.982,0.041,2.619-1.342,2.619c-0.855,0-1.375-0.53-1.375-2.799c0-0.938,0.043-2.506,1.346-2.506
		C150.135,84.289,150.066,85.926,150.066,86.975z"/>
	<path clip-path="url(#SVGID_2_)" d="M70.994,68.476v0.868h1.091v6.202h1.148v-6.202h1.429v-0.868h-1.429v-1.204
		c0-0.573,0.21-1.092,1.429-1.01v-0.823c-0.169-0.029-0.31-0.043-0.548-0.043c-1.022,0-2.029,0.279-2.029,1.709v1.371H70.994"/>
	<path clip-path="url(#SVGID_2_)" d="M79.544,73.167c0,1.175-0.77,1.637-1.387,1.637c-0.811,0-1.203-0.575-1.203-1.427v-4.901
		h-1.149v5.391c0,1.203,0.673,1.819,1.905,1.819c0.742,0,1.414-0.35,1.792-0.993h0.042v0.853h1.217
		c-0.041-0.491-0.068-0.98-0.068-1.469v-5.601h-1.149V73.167 M78.829,67.286h1.317v-1.455h-1.317V67.286z M76.366,67.286h1.316
		v-1.455h-1.316V67.286z"/>
	<path clip-path="url(#SVGID_2_)" d="M83.954,68.476h-1.148v7.07h1.148v-4.171c0-0.954,0.322-1.92,1.597-1.92
		c0.21,0,0.404,0.044,0.616,0.072v-1.191c-1.122,0-1.709,0.125-2.185,1.205h-0.028V68.476"/>
	<path clip-path="url(#SVGID_2_)" d="M92.906,75.546c1.146,0,3.036-0.252,3.036-2.841c0-1.386-0.63-2.255-2.07-2.423v-0.069
		c1.301-0.295,1.734-1.135,1.734-2.396c0-0.194-0.056-0.796-0.406-1.344c-0.377-0.559-0.854-1.034-2.253-1.034h-3.289v10.107H92.906
		 M90.945,66.557h1.819c1.079,0,1.555,0.688,1.555,1.525c0,0.982-0.49,1.598-1.497,1.611h-1.877V66.557z M90.945,70.815h1.372
		c1.316,0,2.309,0.278,2.309,1.89c0,0.741-0.489,1.721-1.862,1.721h-1.819V70.815z"/>
	<path clip-path="url(#SVGID_2_)" d="M97.714,66.669h1.289v-1.23h-1.289V66.669z M97.784,75.546h1.148v-7.07h-1.148V75.546z"/>
	<rect x="101.032" y="65.439" clip-path="url(#SVGID_2_)" width="1.147" height="10.107"/>
	<path clip-path="url(#SVGID_2_)" d="M107.904,69.189h-0.045c-0.391-0.558-0.879-0.853-1.553-0.853c-2.281,0-2.337,2.03-2.337,3.794
		c0,3.109,1.149,3.556,2.282,3.556c0.743,0,1.231-0.322,1.626-0.98h0.027v0.84h1.146V65.439h-1.146V69.189 M107.904,71.724
		c0,1.427,0,3.025-1.288,3.025c-1.444,0-1.444-1.541-1.444-2.605c0-1.89,0.169-2.87,1.401-2.87
		C107.848,69.274,107.904,70.787,107.904,71.724z"/>
	<path clip-path="url(#SVGID_2_)" d="M114.947,73.167c0,1.175-0.771,1.637-1.388,1.637c-0.812,0-1.202-0.575-1.202-1.427v-4.901
		h-1.15v5.391c0,1.203,0.672,1.819,1.904,1.819c0.741,0,1.416-0.35,1.791-0.993h0.045v0.853h1.215
		c-0.041-0.491-0.07-0.98-0.07-1.469v-5.601h-1.145V73.167"/>
	<path clip-path="url(#SVGID_2_)" d="M123.15,75.546v-4.9c0-1.399-0.378-2.31-1.891-2.31c-0.91,0-1.441,0.252-1.889,1.05h-0.058
		v-0.91h-1.218c0.043,0.49,0.072,0.979,0.072,1.471v5.599h1.146v-4.187c0-0.966,0.183-2.085,1.442-2.085
		c0.98,0,1.246,0.617,1.246,1.372v4.9H123.15"/>
	<path clip-path="url(#SVGID_2_)" d="M128.793,69.344h-0.027c-0.322-0.685-0.909-1.008-1.652-1.008
		c-0.574,0-2.213,0.209-2.213,3.459c0,2.1,0.379,3.751,2.295,3.751c0.615,0,1.26-0.322,1.555-0.881h0.043v1.468
		c0,0.729-0.436,1.22-1.229,1.22c-0.634,0-1.069-0.365-1.081-1.022h-1.289c-0.098,1.301,0.967,1.889,2.145,1.889
		c1.553,0,2.603-0.377,2.603-1.959v-7.784h-1.147V69.344 M128.822,71.975c0,0.982,0.041,2.619-1.346,2.619
		c-0.855,0-1.373-0.531-1.373-2.799c0-0.939,0.044-2.506,1.346-2.506C128.891,69.289,128.822,70.926,128.822,71.975z"/>
	<path clip-path="url(#SVGID_2_)" d="M74.788,60.546c1.15,0,3.039-0.252,3.039-2.841c0-1.386-0.629-2.255-2.073-2.423v-0.069
		c1.303-0.295,1.738-1.135,1.738-2.396c0-0.194-0.056-0.796-0.407-1.344c-0.376-0.559-0.853-1.034-2.253-1.034h-3.291v10.107H74.788
		 M72.829,51.557h1.821c1.077,0,1.554,0.688,1.554,1.525c0,0.982-0.492,1.598-1.5,1.611h-1.875V51.557z M72.829,55.815h1.373
		c1.315,0,2.309,0.278,2.309,1.89c0,0.741-0.49,1.721-1.861,1.721h-1.821V55.815z"/>
	<path clip-path="url(#SVGID_2_)" d="M83.24,58.167c0,1.175-0.772,1.637-1.388,1.637c-0.81,0-1.203-0.575-1.203-1.427v-4.901h-1.147
		v5.391c0,1.203,0.671,1.819,1.903,1.819c0.741,0,1.414-0.35,1.791-0.993h0.044v0.853h1.216c-0.041-0.491-0.069-0.98-0.069-1.469
		v-5.601H83.24V58.167"/>
	<path clip-path="url(#SVGID_2_)" d="M91.445,60.546v-4.9c0-1.399-0.38-2.31-1.892-2.31c-0.91,0-1.441,0.252-1.889,1.05h-0.057
		v-0.91h-1.218c0.043,0.49,0.071,0.979,0.071,1.471v5.599h1.147v-4.187c0-0.966,0.183-2.085,1.443-2.085
		c0.98,0,1.245,0.617,1.245,1.372v4.9H91.445"/>
	<path clip-path="url(#SVGID_2_)" d="M97.085,54.189h-0.041c-0.391-0.558-0.882-0.853-1.553-0.853c-2.283,0-2.339,2.03-2.339,3.794
		c0,3.109,1.147,3.556,2.282,3.556c0.742,0,1.233-0.322,1.623-0.98h0.028v0.84h1.149V50.439h-1.149V54.189 M97.085,56.724
		c0,1.427,0,3.025-1.288,3.025c-1.441,0-1.441-1.541-1.441-2.605c0-1.89,0.168-2.87,1.4-2.87
		C97.029,54.274,97.085,55.787,97.085,56.724z"/>
	<path clip-path="url(#SVGID_2_)" d="M105.178,57.382V56.78c0-2.337-0.505-3.444-2.519-3.444c-2.45,0-2.689,1.708-2.689,3.78
		c0,3.123,1.19,3.57,2.689,3.57c1.484,0,2.449-0.714,2.464-2.281h-1.26c-0.042,0.712-0.449,1.344-1.232,1.344
		c-0.896,0-1.429-0.393-1.429-2.367H105.178 M101.202,56.514c0.014-1.959,0.617-2.309,1.344-2.309c0.839,0,1.415,0.25,1.415,2.309
		H101.202z"/>
	<path clip-path="url(#SVGID_2_)" d="M111.508,58.53c0-2.155-3.529-2.128-3.529-3.374c0-0.615,0.477-0.951,1.092-0.951
		c0.729,0,1.121,0.391,1.105,1.132h1.275c0.098-1.399-0.982-2.001-2.242-2.001c-1.986,0-2.434,1.191-2.434,1.932
		c0,2.114,3.527,2.143,3.527,3.402c0,0.729-0.53,1.079-1.217,1.079c-1.162,0-1.178-0.954-1.178-1.359h-1.301
		c-0.042,1.624,0.908,2.296,2.436,2.296C110.443,60.686,111.508,60.084,111.508,58.53"/>
	<path clip-path="url(#SVGID_2_)" d="M117.916,60.546v-4.759c0-0.267,0.053-0.967,0.393-1.246c0.305-0.252,0.432-0.267,0.867-0.267
		c0.926,0,1.121,0.658,1.121,1.372v4.9h1.146V55.17c0-1.666-1.191-1.834-1.932-1.834c-0.645,0-1.289,0.153-1.68,0.911
		c-0.267-0.644-1.01-0.911-1.652-0.911c-0.823,0-1.428,0.267-1.762,1.022h-0.029v-0.882h-1.219c0.041,0.49,0.07,0.979,0.07,1.471
		v5.599h1.148v-4.759c0-0.267,0.055-0.688,0.266-1.038c0.168-0.266,0.645-0.475,0.994-0.475c0.924,0,1.117,0.658,1.117,1.372v4.9
		H117.916"/>
	<path clip-path="url(#SVGID_2_)" d="M123.402,51.669h1.289v-1.23h-1.289V51.669z M123.473,60.546h1.146v-7.07h-1.146V60.546z"/>
	<path clip-path="url(#SVGID_2_)" d="M131.688,60.546v-4.9c0-1.399-0.375-2.31-1.89-2.31c-0.912,0-1.441,0.252-1.891,1.05h-0.057
		v-0.91h-1.217c0.041,0.49,0.068,0.979,0.068,1.471v5.599h1.148v-4.187c0-0.966,0.184-2.085,1.443-2.085
		c0.979,0,1.246,0.617,1.246,1.372v4.9H131.688"/>
	<path clip-path="url(#SVGID_2_)" d="M133.648,51.669h1.286v-1.23h-1.286V51.669z M133.719,60.546h1.148v-7.07h-1.148V60.546z"/>
	<path clip-path="url(#SVGID_2_)" d="M141.391,58.53c0-2.155-3.531-2.128-3.531-3.374c0-0.615,0.477-0.951,1.092-0.951
		c0.73,0,1.123,0.391,1.105,1.132h1.277c0.098-1.399-0.982-2.001-2.242-2.001c-1.985,0-2.436,1.191-2.436,1.932
		c0,2.114,3.529,2.143,3.529,3.402c0,0.729-0.533,1.079-1.217,1.079c-1.166,0-1.178-0.954-1.178-1.359h-1.303
		c-0.039,1.624,0.91,2.296,2.438,2.296C140.322,60.686,141.391,60.084,141.391,58.53"/>
	<path clip-path="url(#SVGID_2_)" d="M142.156,53.476v0.868h1.16v5.027c0,0.811,0.49,1.259,1.582,1.259
		c0.379,0,0.756-0.084,1.135-0.113v-0.88c-0.252,0.028-0.434,0.056-0.518,0.056c-1.049,0-1.049-0.576-1.049-1.023v-4.326h1.537
		v-0.868h-1.537v-1.875l-1.15,0.517v1.358H142.156"/>
	<path clip-path="url(#SVGID_2_)" d="M152.176,57.382V56.78c0-2.337-0.502-3.444-2.52-3.444c-2.451,0-2.688,1.708-2.688,3.78
		c0,3.123,1.189,3.57,2.688,3.57c1.482,0,2.45-0.714,2.463-2.281h-1.26c-0.043,0.712-0.445,1.344-1.23,1.344
		c-0.897,0-1.43-0.393-1.43-2.367H152.176 M148.199,56.514c0.014-1.959,0.616-2.309,1.346-2.309c0.84,0,1.412,0.25,1.412,2.309
		H148.199z"/>
	<path clip-path="url(#SVGID_2_)" d="M155.018,53.476h-1.146v7.07h1.146v-4.171c0-0.954,0.322-1.92,1.598-1.92
		c0.209,0,0.404,0.044,0.615,0.072v-1.191c-1.121,0-1.707,0.125-2.184,1.205h-0.029V53.476"/>
	<path clip-path="url(#SVGID_2_)" d="M158.385,51.669h1.289v-1.23h-1.289V51.669z M158.453,60.546h1.149v-7.07h-1.149V60.546z"/>
	<path clip-path="url(#SVGID_2_)" d="M165.367,58.167c0,1.175-0.768,1.637-1.385,1.637c-0.813,0-1.203-0.575-1.203-1.427v-4.901
		h-1.148v5.391c0,1.203,0.672,1.819,1.904,1.819c0.742,0,1.414-0.35,1.793-0.993h0.039v0.853h1.221
		c-0.045-0.491-0.07-0.98-0.07-1.469v-5.601h-1.15V58.167"/>
	<path clip-path="url(#SVGID_2_)" d="M173.25,60.546v-4.759c0-0.267,0.057-0.967,0.393-1.246c0.309-0.252,0.434-0.267,0.867-0.267
		c0.926,0,1.121,0.658,1.121,1.372v4.9h1.15V55.17c0-1.666-1.191-1.834-1.934-1.834c-0.645,0-1.287,0.153-1.68,0.911
		c-0.268-0.644-1.01-0.911-1.654-0.911c-0.823,0-1.428,0.267-1.762,1.022h-0.029v-0.882h-1.219c0.045,0.49,0.07,0.979,0.07,1.471
		v5.599h1.148v-4.759c0-0.267,0.057-0.688,0.266-1.038c0.168-0.266,0.645-0.475,0.996-0.475c0.92,0,1.119,0.658,1.119,1.372v4.9
		H173.25"/>
	<rect x="58.254" y="100.547" clip-path="url(#SVGID_2_)" fill="#F8D200" width="4.429" height="25.002"/>
	<rect x="58.254" y="75.46" clip-path="url(#SVGID_2_)" fill="#E30613" width="4.429" height="25.087"/>
	<rect x="58.254" y="50.547" clip-path="url(#SVGID_2_)" width="4.429" height="24.999"/>
	<path clip-path="url(#SVGID_2_)" d="M38.899,57.119c0.112,0.006,0.219,0.012,0.331,0.012c1.975,0,3.934-1.276,3.934-2.913
		c0-0.873-0.393-1.483-0.878-2.159c-0.284,0.047-0.543,0.074-0.747,0.074c-0.895,0-1.38-0.48-1.415-0.951
		c0-0.424,0.344-0.744,0.879-0.744c0.831,0,2.345,0.777,3.871,0.777c-0.15,0.114-0.4,0.233-0.701,0.346
		c0.895,0.805,1.492,1.885,1.72,3.038l2.339,3.742c0.392,0.625,1.223,1.854,2.474,2.813c-1.512,0-2.517,0.036-3.795-1.987
		l-1.199-1.918c-0.087,0.248-0.198,0.49-0.326,0.726l2.384,3.817c0.397,0.63,1.217,1.85,2.475,2.813
		c-1.514,0-2.515,0.036-3.795-1.987l-2.052-3.285c-0.153,0.162-0.315,0.322-0.486,0.476l2.895,4.634
		c0.4,0.635,1.217,1.847,2.476,2.812c-1.513,0-2.516,0.036-3.796-1.989l-2.821-4.515c-0.188,0.118-0.377,0.23-0.573,0.338
		l3.444,5.513c0.397,0.633,1.215,1.847,2.474,2.813c-1.511,0-2.516,0.035-3.793-1.989l-3.548-5.677
		c-0.21,0.082-0.423,0.157-0.64,0.226l4.01,6.418c0.39,0.621,1.228,1.854,2.472,2.811c-1.511,0-2.515,0.036-3.793-1.989
		l-4.272-6.838l-0.131,0.024C38.2,62.77,38.12,63.116,38.12,63.46c0,2.148,1.409,4.045,3.102,5.51
		c-0.109,0.046-0.298,0.065-0.472,0.065c-0.348,0-0.575-0.021-0.734-0.048c0.394,0.892,1.236,2.043,1.661,2.639
		c0.554-0.1,1.361-0.179,1.888-0.179c0.552,0,0.612,0.323,0.612,0.613c0,0.5-0.234,0.903-0.506,1.125
		c-0.101-0.259-0.307-0.6-1.328-0.6l-0.103,0.003c0.3,0.333,1.232,1.088,1.232,1.698c0,0.401-0.441,1.004-1.024,1.004
		c0.037-0.129,0.03-0.25,0.03-0.338c0-0.492-0.435-1.069-0.804-1.47c0.01,0.12,0.005,0.106,0.005,0.247
		c0,1.163-0.104,1.697-0.844,1.697c-0.362,0-0.613-0.199-0.698-0.258c0.479-0.442,0.505-0.791,0.505-1.442l-0.005-0.565
		c-0.001-0.149,0.002-0.346,0.025-0.49c-0.265-0.036-0.369-0.035-0.575-0.035c0,0-1.05-0.083-1.302,0.462
		c-0.284-0.26-0.698-0.628-0.698-1.038c0-0.268,0.126-0.573,0.666-0.573c0.206,0,0.85,0.127,1.389,0.127
		c-0.144-0.322-0.79-1.264-1.347-1.95c-0.085,0.264-0.217,0.553-0.51,0.787c-0.04-0.441-0.298-1.829-0.986-2.642
		c-0.08,0.549-0.189,1.112-0.189,2.3c0,2.891,0.696,5.028,2.173,5.437c-0.192,0.335-0.598,0.636-1.02,0.636
		c-0.54,0-0.834-0.611-1.135-1.189c-0.155,0.427-0.585,1.467-1.02,1.467c-0.432,0-0.863-1.04-1.02-1.467
		c-0.299,0.578-0.593,1.189-1.135,1.189c-0.42,0-0.827-0.301-1.018-0.636c1.476-0.409,2.172-2.546,2.172-5.437
		c0-1.188-0.108-1.751-0.189-2.3c-0.687,0.813-0.946,2.201-0.986,2.642c-0.293-0.234-0.426-0.523-0.51-0.787
		c-0.557,0.686-1.202,1.628-1.347,1.95c0.54,0,1.183-0.127,1.388-0.127c0.54,0,0.668,0.305,0.668,0.573
		c0,0.41-0.415,0.778-0.698,1.038c-0.253-0.545-1.304-0.462-1.304-0.462c-0.203,0-0.308-0.001-0.574,0.035
		c0.023,0.144,0.028,0.341,0.024,0.49l-0.003,0.565c0,0.651,0.024,1,0.505,1.442c-0.086,0.059-0.336,0.258-0.699,0.258
		c-0.74,0-0.845-0.534-0.845-1.697c0-0.141-0.004-0.127,0.007-0.247c-0.371,0.401-0.805,0.978-0.805,1.47
		c0,0.088-0.006,0.209,0.029,0.338c-0.581,0-1.022-0.603-1.022-1.004c0-0.61,0.933-1.365,1.231-1.698l-0.103-0.003
		c-1.02,0-1.227,0.341-1.329,0.6c-0.272-0.222-0.506-0.625-0.506-1.125c0-0.29,0.062-0.613,0.614-0.613
		c0.528,0,1.334,0.079,1.888,0.179c0.423-0.596,1.265-1.747,1.659-2.639c-0.158,0.027-0.383,0.048-0.733,0.048
		c-0.173,0-0.364-0.019-0.47-0.065c1.691-1.465,3.1-3.362,3.1-5.51c0-0.344-0.079-0.69-0.196-1.059l-0.129-0.024l-4.273,6.838
		c-1.279,2.025-2.282,1.989-3.793,1.989c1.244-0.957,2.081-2.19,2.471-2.811l4.01-6.418c-0.217-0.069-0.429-0.144-0.64-0.226
		l-3.546,5.677c-1.28,2.024-2.284,1.989-3.794,1.989c1.258-0.966,2.075-2.18,2.472-2.813l3.446-5.513
		c-0.197-0.108-0.387-0.22-0.574-0.338l-2.822,4.515c-1.279,2.025-2.281,1.989-3.794,1.989c1.259-0.965,2.077-2.177,2.475-2.812
		l2.895-4.634c-0.171-0.154-0.333-0.314-0.485-0.476l-2.052,3.285c-1.28,2.023-2.283,1.987-3.795,1.987
		c1.256-0.963,2.077-2.183,2.475-2.813l2.383-3.817c-0.127-0.236-0.237-0.478-0.327-0.726l-1.198,1.918
		c-1.278,2.023-2.282,1.987-3.793,1.987c1.251-0.959,2.08-2.188,2.474-2.813l2.338-3.742c0.227-1.153,0.824-2.233,1.719-3.038
		c-0.299-0.113-0.55-0.232-0.701-0.346c1.527,0,3.039-0.776,3.87-0.776c0.538,0,0.88,0.319,0.88,0.743
		c-0.033,0.471-0.52,0.951-1.415,0.951c-0.203,0-0.463-0.027-0.748-0.074c-0.484,0.676-0.877,1.286-0.877,2.159
		c0,1.637,1.959,2.913,3.936,2.913c0.111,0,0.218-0.006,0.329-0.012c0.392-1.326,1.225-2.197,1.891-3.047
		c-0.798-0.291-1.688-1.049-1.688-1.392c0.101-0.058,1.63,0.422,1.788,0.465c0.032,0.009,0.066,0.011,0.102,0
		c0.186-0.057,0.341-0.328,0.341-0.356c-0.163-0.027-1.122-0.152-1.778-0.39c-0.498-0.182-0.75-0.513-0.75-0.639
		c0.159-0.025,0.767,0.293,1.657,0.293c0.329,0,0.394-0.012,0.721-0.053c-0.23-0.546-0.662-1.009-1.147-1.009
		c-0.197,0-0.623,0.122-0.981,0.3c-0.249-0.386-0.468-0.895-0.468-1.173c0-0.327,0.325-0.712,1.24-0.712
		c0.256,0,0.495,0.022,0.717,0.063c0.178,0.033,0.329,0.074,0.491,0.137c-0.014-0.021-0.021-0.07-0.021-0.115
		c0-0.127,0.114-0.261,0.545-0.261c0.753,0,1.524,0.247,2.472,0.247c0.245,0,0.411-0.008,0.553-0.067
		c-0.061,0.188-0.327,0.466-0.571,0.69c0.15,0.207,0.542,0.702,0.542,1.504c0,1.288-0.849,2.351-0.849,3.652
		C38.125,56.031,38.72,56.711,38.899,57.119 M36.627,50.977c0.703,0.137,1.18-0.76,0.514-0.919c0.092,0.295-0.356,0.504-0.356,0.504
		s-0.171-0.395,0.05-0.621c-0.409-0.2-0.511,0.042-0.519,0.294C36.476,50.45,36.581,50.7,36.627,50.977z M36.038,52.36
		c0.131-0.299,0.304-0.654,0.304-1.045c0-1.081-0.896-1.597-2.096-1.597c-0.617,0-0.928,0.2-0.928,0.4
		c0,0.2,0.204,0.639,0.282,0.775c0.222-0.1,0.623-0.217,0.855-0.217C35.279,50.676,35.894,51.601,36.038,52.36z M28.37,54.28
		c0-1.049,0.683-1.842,1.07-2.316l-0.26-0.059c-0.367,0.318-1.401,1.445-1.401,2.87c0,2.492,2.51,4.807,5.363,4.826
		c-0.03-0.27-0.048-0.558-0.048-0.866c0-0.192,0.008-0.381,0.025-0.559C30.596,58.176,28.37,56.366,28.37,54.28z M33.335,69.361
		c-0.082-0.303-0.162-0.524-0.479-0.524c-0.163,0-0.239,0.029-0.335,0.062c-0.344,0.95-1.658,2.73-1.866,3.006
		c-0.566-0.094-1.361-0.195-2.002-0.195c-0.151,0-0.359-0.011-0.359,0.35c0,0.207,0.092,0.575,0.207,0.696
		c0.282-0.334,0.771-0.433,1.373-0.433c0.236,0,0.519,0.081,0.626,0.107c-0.768,0.778-1.492,1.422-1.492,1.856
		c0,0.238,0.249,0.557,0.46,0.666c0-0.636,0.659-1.515,1.303-2.008c0,0.086,0.03,0.422,0.03,0.785c0,1.199,0.119,1.436,0.581,1.436
		c0.084,0,0.227-0.03,0.283-0.063c-0.249-0.286-0.354-0.664-0.354-1.376c0-0.205,0.008-0.399,0.008-0.565
		c0-0.317-0.037-0.541-0.062-0.715c0.176-0.024,0.578-0.081,0.872-0.081c0.629,0,1.019,0.061,1.304,0.342
		c0.204-0.153,0.43-0.446,0.43-0.647c0-0.29-0.194-0.31-0.4-0.31c-0.319,0-0.579,0.127-1.787,0.127
		C31.914,71.198,32.61,70.241,33.335,69.361z M40.541,71.877c-1.207,0-1.469-0.127-1.788-0.127c-0.204,0-0.398,0.02-0.398,0.31
		c0,0.201,0.226,0.494,0.43,0.647c0.284-0.281,0.674-0.342,1.302-0.342c0.294,0,0.696,0.057,0.873,0.081
		c-0.025,0.174-0.06,0.398-0.06,0.715c0,0.166,0.006,0.36,0.006,0.565c0,0.712-0.105,1.09-0.353,1.376
		c0.054,0.033,0.197,0.063,0.282,0.063c0.462,0,0.581-0.237,0.581-1.436c0-0.363,0.029-0.699,0.029-0.785
		c0.645,0.493,1.305,1.372,1.305,2.008c0.21-0.109,0.459-0.428,0.459-0.666c0-0.434-0.724-1.078-1.493-1.856
		c0.108-0.026,0.393-0.107,0.627-0.107c0.603,0,1.091,0.099,1.374,0.433c0.113-0.121,0.205-0.489,0.205-0.696
		c0-0.361-0.207-0.35-0.357-0.35c-0.643,0-1.436,0.101-2.004,0.195c-0.206-0.276-1.522-2.056-1.863-3.006
		c-0.099-0.033-0.175-0.062-0.336-0.062c-0.317,0-0.4,0.221-0.481,0.524C39.606,70.241,40.303,71.198,40.541,71.877z M44.439,54.775
		c0-1.425-1.036-2.552-1.4-2.87l-0.263,0.059c0.388,0.474,1.071,1.267,1.071,2.316c0,2.066-2.182,3.861-4.675,3.894
		c0.02,0.213,0.018,0.401,0.018,0.561c0,0.295-0.019,0.584-0.054,0.865C41.963,59.549,44.439,57.25,44.439,54.775z M32.963,75.546
		L32.963,75.546z M32.963,75.565L32.963,75.565z M32.965,75.562L32.965,75.562z M32.964,75.551L32.964,75.551z"/>
	<path clip-path="url(#SVGID_2_)" d="M74.555,20.919c0-0.744-0.306-1.147-1.12-1.147c-0.254,0-1.163,0.044-1.163,1.365v2.136
		c0,1.382,0.401,1.731,1.163,1.731c0.578,0,0.962-0.157,1.129-0.279v-1.89H73.4v-0.7h1.969v3.072
		c-0.516,0.28-1.12,0.471-1.934,0.471c-1.339,0-1.986-0.691-1.986-2.441v-2.073c0-1.26,0.647-2.066,1.986-2.066
		c1.365,0,2.013,0.5,1.96,1.821H74.555"/>
	<polyline clip-path="url(#SVGID_2_)" points="76.874,25.547 76.874,19.23 80.128,19.23 80.128,19.93 77.678,19.93 77.678,21.96 
		79.954,21.96 79.954,22.66 77.678,22.66 77.678,24.847 80.181,24.847 80.181,25.547 76.874,25.547 	"/>
	<polyline clip-path="url(#SVGID_2_)" points="81.188,25.547 81.188,19.23 84.32,19.23 84.32,19.93 81.993,19.93 81.993,21.96 
		84.198,21.96 84.198,22.66 81.993,22.66 81.993,25.547 81.188,25.547 	"/>
	<path clip-path="url(#SVGID_2_)" d="M87.461,17.577h0.822v0.909h-0.822V17.577z M88.257,23.273v-2.136
		c0-1.321-0.91-1.365-1.163-1.365c-0.254,0-1.164,0.044-1.164,1.365v2.136c0,1.382,0.403,1.731,1.164,1.731
		C87.855,25.004,88.257,24.655,88.257,23.273z M85.921,17.577h0.822v0.909h-0.822V17.577z M85.107,23.237v-2.073
		c0-1.26,0.647-2.066,1.987-2.066c1.338,0,1.986,0.806,1.986,2.066v2.073c0,1.75-0.648,2.441-1.986,2.441
		C85.754,25.678,85.107,24.987,85.107,23.237z"/>
	<path clip-path="url(#SVGID_2_)" d="M91.267,21.943h1.208c0.577,0,0.857-0.499,0.857-1.051c0-0.454-0.227-0.962-0.849-0.962h-1.216
		V21.943 M91.267,22.642v2.905h-0.805V19.23h2.179c1.12,0,1.514,0.788,1.514,1.575c0,0.743-0.411,1.313-1.155,1.444v0.017
		c0.726,0.113,0.989,0.359,1.033,1.627c0.008,0.272,0.095,1.261,0.218,1.654h-0.84c-0.228-0.437-0.175-1.259-0.244-2.1
		c-0.062-0.77-0.684-0.805-0.955-0.805H91.267z"/>
	<path clip-path="url(#SVGID_2_)" d="M96.168,24.847h0.76c1.12,0,1.532-0.42,1.532-1.889V21.68c0-1.278-0.394-1.75-1.234-1.75
		h-1.058V24.847 M95.362,19.23h1.943c0.805,0,1.383,0.289,1.697,0.962c0.254,0.534,0.281,1.794,0.281,1.995
		c0,1.348-0.123,2.127-0.386,2.547c-0.341,0.542-0.979,0.813-2.082,0.813h-1.453V19.23z"/>
	<polyline clip-path="url(#SVGID_2_)" points="100.691,25.547 100.691,19.23 103.946,19.23 103.946,19.93 101.496,19.93 
		101.496,21.96 103.771,21.96 103.771,22.66 101.496,22.66 101.496,24.847 103.999,24.847 103.999,25.547 100.691,25.547 	"/>
	<path clip-path="url(#SVGID_2_)" d="M105.854,21.943h1.207c0.578,0,0.857-0.499,0.857-1.051c0-0.454-0.227-0.962-0.85-0.962h-1.214
		V21.943 M105.854,22.642v2.905h-0.806V19.23h2.179c1.121,0,1.514,0.788,1.514,1.575c0,0.743-0.41,1.313-1.154,1.444v0.017
		c0.724,0.113,0.988,0.359,1.031,1.627c0.01,0.272,0.098,1.261,0.221,1.654h-0.84c-0.229-0.437-0.176-1.259-0.246-2.1
		c-0.061-0.77-0.684-0.805-0.954-0.805H105.854z"/>
	<polyline clip-path="url(#SVGID_2_)" points="113.475,19.23 113.475,19.93 111.813,19.93 111.813,25.547 111.008,25.547 
		111.008,19.93 109.344,19.93 109.344,19.23 113.475,19.23 	"/>
	<polyline clip-path="url(#SVGID_2_)" points="118.445,25.547 117.482,25.547 115.654,19.23 116.527,19.23 117.973,24.787 
		117.988,24.787 119.467,19.23 120.291,19.23 118.445,25.547 	"/>
	<path clip-path="url(#SVGID_2_)" d="M124.236,23.273v-2.136c0-1.321-0.908-1.365-1.162-1.365s-1.164,0.044-1.164,1.365v2.136
		c0,1.382,0.403,1.731,1.164,1.731C123.834,25.004,124.236,24.655,124.236,23.273 M121.088,23.237v-2.073
		c0-1.26,0.646-2.066,1.986-2.066c1.338,0,1.984,0.806,1.984,2.066v2.073c0,1.75-0.646,2.441-1.984,2.441
		C121.734,25.678,121.088,24.987,121.088,23.237z"/>
	<polyline clip-path="url(#SVGID_2_)" points="127.221,25.547 126.469,25.547 126.469,19.23 127.772,19.23 129.363,24.533 
		129.383,24.533 130.992,19.23 132.322,19.23 132.322,25.547 131.518,25.547 131.518,19.93 131.498,19.93 129.732,25.547 
		128.971,25.547 127.238,19.93 127.221,19.93 127.221,25.547 	"/>
</g>
</svg>
