<?xml version="1.0" encoding="utf-8"?>
<!-- Generator: Adobe Illustrator 15.0.0, SVG Export Plug-In . SVG Version: 6.00 Build 0)  -->
<!DOCTYPE svg PUBLIC "-//W3C//DTD SVG 1.1//EN" "http://www.w3.org/Graphics/SVG/1.1/DTD/svg11.dtd">
<svg version="1.1" id="Layer_1" xmlns="http://www.w3.org/2000/svg" xmlns:xlink="http://www.w3.org/1999/xlink" x="0px" y="0px"
	 width="720px" height="600px" viewBox="0 0 720 600" enable-background="new 0 0 720 600" xml:space="preserve">
<g id="XMLID_2_">
	<g>
		<path fill="#004471" d="M576.762,356.133c0,28.48,0,56.961,0,85.441c-10.286,0.889-24.258-1.909-31.831,1.676
			c4.172-5.881,8.126-11.979,10.053-20.104c2.244-1.676,3.283-4.523,6.701-5.026c1.391-13.671-1.608-22.952-3.351-33.507
			c0.871-4.791,2.479,2.697,3.351,3.351c3.87-2.681-3.921-16.82-6.701-8.376c-0.486-3.418-4.541-3.284-5.026-6.701
			c0.117-5.713-4.926-6.232-8.377-8.377c-3.971-2.73-9.684-3.72-15.078-5.026c1.425-2.496,5.395-2.429,8.377-3.351
			C548.835,356.133,562.807,356.133,576.762,356.133z"/>
		<path fill="#4A658F" d="M94.269,332.679c3.903,39.085,0.553,85.441,1.675,127.324c-1.96-0.268-1.407-3.049-1.675-5.025
			c0-4.474,0-8.93,0-13.403c0-28.48,0-56.961,0-85.441c0-4.473,0-8.93,0-13.402C94.269,339.38,94.269,336.029,94.269,332.679z"/>
		<path fill="#004471" d="M240.022,386.289c0,18.429,0,36.857,0,55.285c-8.377,0-16.753,0-25.13,0c0-21.226,0-42.436,0-63.662
			C223.553,380.425,230.054,385.083,240.022,386.289z"/>
		<path fill="#B67132" d="M487.97,448.276c-0.017,3.333-4.573,2.127-3.351,6.701c-2.513,1.038-4.725,2.445-6.701,3.351
			c-3.585,1.658-17.708,8.729-16.753-1.676C471.837,461.796,481.135,452.397,487.97,448.276z"/>
		<path fill="#004470" d="M380.749,454.978c-7.254,0-14.525,0-21.779,0c0-4.474,0-8.93,0-13.403
			c5.696,0.453,13.587-1.29,16.754,1.676C377.113,447.438,380.313,449.834,380.749,454.978z"/>
		<path fill="#8E6750" d="M541.58,364.51c3.451,2.145,8.494,2.664,8.377,8.377c-3.568-2.011-9.131-2.044-10.052-6.702
			C540.927,366.084,541.882,365.934,541.58,364.51z"/>
		<path fill="#8E6750" d="M554.983,379.588c2.78-8.444,10.571,5.695,6.701,8.376c-0.871-0.653-2.479-8.142-3.351-3.351
			c-2.262,2.145-3.351,5.093-5.026,0c0.352-2.027,1.859-1.038,3.351,0C556.726,382.302,555.871,380.928,554.983,379.588z"/>
		<path fill="#004471" d="M288.606,404.718c0,12.28,0,24.577,0,36.856c-8.93,0-17.876,0-26.805,0c0-15.077,0-30.155,0-45.233
			C272.456,397.413,278.504,403.093,288.606,404.718z"/>
		<path fill="#004471" d="M539.905,411.419c2.63-0.569,6.685,5.06,0,8.376c0-1.675,0-3.351,0-5.025
			c-4.792,1.91-3.77,9.633-8.377,11.728c-5.227-14.877-10.504-29.704-13.402-46.909c4.473,0,8.93,0,13.402,0
			C538.012,386.121,543.139,400.462,539.905,411.419z"/>
		<path fill="#007BB0" d="M645.45,280.743c2.329,2.178,6.685,4.356,6.701,8.377c-72.374,26.47-144.412,53.275-216.116,80.415
			c-13.403-6.533-23.739-19.953-35.182-30.155c-3.066-2.73-6.719-3.803-10.053-6.701c-5.545-4.809-10.855-10.505-16.753-16.754
			c-1.29-1.356-7.104-3.016-5.026-6.701c72.676-26.168,143.693-53.996,216.117-80.416c9.215,4.507,18.194,14.291,26.806,21.779
			c5.193,4.523,10.604,9.717,16.753,15.078C633.857,270.155,639.536,275.215,645.45,280.743z"/>
		<path fill="#8E6750" d="M442.736,441.574c-0.553,0-1.123,0-1.676,0c2.614-8.628-6.868-10.722-1.675-16.753
			C441.932,428.977,442.619,434.99,442.736,441.574z"/>
		<path fill="#004470" d="M335.515,441.574c0,4.474,0,8.93,0,13.403c-8.376,0-16.753,0-25.13,0c0-4.474,0-8.93,0-13.403
			C318.762,441.574,327.139,441.574,335.515,441.574z"/>
		<path fill="#004470" d="M240.022,441.574c0,4.474,0,8.93,0,13.403c-8.377,0-16.753,0-25.13,0c0-4.474,0-8.93,0-13.403
			C223.269,441.574,231.645,441.574,240.022,441.574z"/>
		<path fill="#004470" d="M191.438,441.574c0,4.474,0,8.93,0,13.403c-8.377,0-16.753,0-25.13,0c0-4.474,0-8.93,0-13.403
			C174.684,441.574,183.061,441.574,191.438,441.574z"/>
		<path fill="#004471" d="M191.438,369.535c0,24.008,0,48.032,0,72.039c-8.377,0-16.753,0-25.13,0c0-27.357,0-54.732,0-82.091
			C174.617,362.901,183.932,365.313,191.438,369.535z"/>
		<path fill="#C0C5D9" d="M600.217,454.978c0.15,2.379,0.285,4.741-1.676,5.025c0-43.005,0-85.994,0-129c0.554,0,1.123,0,1.676,0
			c0,3.903,0,7.824,0,11.728c0,4.473,0,8.93,0,13.402c0,28.48,0,56.961,0,85.441C600.217,446.048,600.217,450.504,600.217,454.978z"
			/>
		<path fill="#007BB0" d="M643.775,133.315c-0.419,4.138-4.121,6.953-6.701,10.052c-15.363,18.429-35.266,38.817-51.936,58.636
			c-12.163-1.44-22.55-8.628-33.507-13.402c-44.194-19.266-92.31-37.779-137.376-58.637c22.098-19.785,42.134-41.631,65.338-60.312
			C534.963,90.242,588.154,112.976,643.775,133.315z"/>
		<path fill="#004470" d="M288.606,441.574c0,4.474,0,8.93,0,13.403c-8.93,0-17.876,0-26.805,0c0-4.474,0-8.93,0-13.403
			C270.73,441.574,279.677,441.574,288.606,441.574z"/>
		<path fill="#004471" d="M335.515,441.574c-8.376,0-16.753,0-25.13,0c1.34-14.022-1.859-24.761,0-35.182
			c1.608-8.979,7.807-17.205,11.728-25.13c4.104-8.293,8.913-16.351,11.727-25.13C337.744,381.263,334.393,413.646,335.515,441.574z
			"/>
		<path fill="#007BB0" d="M302.009,91.432c9.516,10.873,21.411,20.271,28.48,33.506c-70.096,20.372-140.71,40.225-209.416,61.987
			c-7.037-3.535-13.151-9.583-18.429-15.078c-10.019-10.437-19.082-22.433-30.156-33.506c-5.177-5.177-12.716-8.93-15.078-16.753
			c71.118-21.578,143.944-41.447,214.442-63.662C283.882,67.173,292.074,80.09,302.009,91.432z"/>
		<path fill="#5D5963" d="M499.697,376.237c-0.033,3.953,2.882,4.925,1.675,10.052c-0.284,10.438-3.065-8.762-3.351,1.675
			c-1.96-0.284-1.826-2.646-1.675-5.025c0.553,0,1.122,0,1.675,0C498.307,380.425,497.419,376.756,499.697,376.237z"/>
		<path fill="#8E6750" d="M539.905,414.77c0,1.675,0,3.351,0,5.025c-0.353,3.535-6.836,15.095-8.377,6.702
			C536.136,424.402,535.113,416.68,539.905,414.77z"/>
		<path fill="#B67132" d="M441.061,449.951c2.111-0.368,3.418-2.613,3.351,1.676c-0.318,1.356-1.675,1.675-1.675,3.351
			c-2.212,0.017-1.524,2.932-3.351,3.351C434.31,456.284,440.575,451.928,441.061,449.951z"/>
		<path fill="#004470" d="M142.853,441.574c0,3.904,0,7.824,0,11.728c-9.416-1.759-15.933-6.399-25.13-8.377
			c0-1.122,0-2.228,0-3.351C126.1,441.574,134.477,441.574,142.853,441.574z"/>
		<path fill="#EE7D00" d="M439.386,424.821c-5.193,6.031,4.289,8.125,1.675,16.753c0,2.798,0,5.579,0,8.377
			c-0.485,1.977-6.751,6.333-1.675,8.377c-4.624,13.604-28.598,18.747-40.208,13.402c-4.607-2.128-8.813-6.483-11.728-8.377
			c-3.384-2.178-4.774-5.629-6.701-8.376c-0.436-5.144-3.636-7.539-5.025-11.728c-1.844-9.08-4.406-30.424,1.675-36.857
			c0.269,1.978-0.285,4.758,1.676,5.026c4.623-13.938,11.895-25.935,26.805-25.13c-0.436,4.908,3.786,5.143,3.351,10.052
			c-13.854,4.591-22.063,28.815-13.402,45.233c2.864,6.635,6.198,12.8,13.402,15.078c-0.302,1.424,0.653,1.575,1.676,1.676
			c9.984,2.161,11.358-4.272,18.429-5.026c7.639-16.485-1.357-33.641-15.078-38.532c-15.547,0.167-5.797-23.304,5.025-15.078
			c-1.977,0.269-4.758-0.285-5.025,1.676C426.469,405.354,434.376,413.63,439.386,424.821z"/>
		<path fill="#004571" d="M576.762,356.133c-13.955,0-27.927,0-41.883,0c12.414-6.015,26.018-10.839,40.208-15.078
			C578.89,342.831,575.724,351.593,576.762,356.133z"/>
		<path fill="#8E6750" d="M389.126,384.613c3.702,6.015-9.449,9.482-8.377,18.429C373.395,398.469,386.63,390.008,389.126,384.613z"
			/>
		<path fill="#8E6750" d="M501.372,386.289c3.435,3.016,2.245,15.547-1.675,16.753c-2.798-2.781-1.34-9.834-1.676-15.078
			C498.307,377.527,501.088,396.727,501.372,386.289z"/>
		<path fill="#00436F" d="M335.515,490.159c0,11.728,0,23.454,0,35.182c-8.946-2.229-15.413-6.936-25.13-8.377
			c0-8.929,0-17.875,0-26.805C318.762,490.159,327.139,490.159,335.515,490.159z"/>
		<path fill="#004571" d="M142.853,352.782c0,1.123,0,2.229,0,3.351c-8.376,0-16.753,0-25.13,0
			c1.022-4.004-2.111-12.146,1.675-13.402C127.507,345.796,137.324,347.137,142.853,352.782z"/>
		<path fill="#004471" d="M142.853,356.133c0,28.48,0,56.961,0,85.441c-8.376,0-16.753,0-25.13,0c0-28.48,0-56.961,0-85.441
			C126.1,356.133,134.477,356.133,142.853,356.133z"/>
		<path fill="#004370" d="M191.438,454.978c0,5.578,0,11.174,0,16.753c-5.813-0.888-8.913-4.473-15.078-5.026
			c-2.546-3.585-11.577-0.703-10.052-8.376c0-1.123,0-2.229,0-3.351C174.684,454.978,183.061,454.978,191.438,454.978z"/>
		<path fill="#FFFFFF" d="M102.645,203.662c0.788-2.111,0.201-3.635-3.351-5.009c-10.739-13.269-24.443-23.588-35.182-36.857
			c-2.647-4.054-5.998-7.405-10.052-10.052c-8.578-10.957-19.869-19.216-28.48-30.156c-0.821-4.406-9.231-5.646-5.026-10.052
			c48.869-14.793,97.102-30.223,145.753-45.234c21.528-6.953,42.872-14.089,65.337-20.104c1.793-1.659,12.364-3.786,21.779-6.701
			c8.192-2.546,16.268-7.12,18.429-6.701c5.914,1.139,4.875,6.182,10.052,8.376c7.271,7.807,13.922,16.234,21.779,23.455
			c10.605,11.744,21.059,23.588,31.831,35.182c10.404,11.191,22.684,21.227,30.156,35.182
			c-56.492,16.669-112.079,32.702-169.208,50.26c-2.346,0.72-5.931,0.837-8.376,1.675c-18.58,6.333-44.681,15.647-67.013,20.104
			c3.066,7.421,11.543,6.802,20.104,10.052c56.425,21.377,115.296,44.245,175.909,67.013c18.11,6.802,24.677,13.402,43.558,6.701
			c2.614-0.921,3.971-2.362,6.702-3.351c63.629-23.086,128.514-48.635,192.662-70.364c-2.597-3.887-7.673-4.925-11.728-6.701
			c-57.044-25.029-119.769-50.243-179.26-75.39c-0.05-3.066,1.324-4.674,3.351-6.702c3.669-3.669,7.606-4.892,11.728-8.376
			c0.486-0.419,1.224-3.149,1.676-3.351c7.823-3.535,15.781-12.213,23.454-18.429c13.956-11.308,28.598-21.595,41.883-33.506
			c7.857-6.098,15.296-12.615,23.455-18.429c0.553,0,1.122,0,1.675,0c18.312,5.126,32.837,14.073,51.936,18.429
			c24.409,12.38,51.03,20.154,77.065,30.156c25.615,9.834,50.896,21.562,77.064,30.156c-3.618,9.214-11.476,14.207-16.753,21.779
			c-3.167,5.763-9.7,8.159-11.728,15.078c-10.304,8.695-17.792,20.171-26.806,30.156c-6.751,7.773-13.402,15.631-20.104,23.455
			c0.218,7.036,7.807,8.108,11.728,11.727c11.208,10.371,22.667,23.874,36.857,33.507c2.178,2.748,4.121,6.115,6.701,8.376
			c2.714,2.396,5.913,2.781,8.376,5.026c4.758,4.339,7.791,11.878,15.078,13.403c1.039,4.54,7.003,4.171,6.701,10.052
			c-31.445,10.437-61.149,22.617-92.143,33.506c-0.553,0-1.122,0-1.676,0c0,43.006,0,85.995,0,129
			c-24.962,10.772-53.241,18.244-77.064,30.156c-58.15,18.914-112.716,41.414-169.208,61.987c-3.719,3.887-6.534-0.57-11.727,0
			c-5.646-4.977-13.185-5.914-20.104-8.377c-46.356-16.519-96.365-37.478-145.753-53.61c-25.448-10.856-52.438-20.171-78.74-30.156
			c-1.123-41.883,2.228-88.239-1.675-127.324c-17.122-4.657-30.709-12.85-48.584-16.754c0.788-12.615,8.209-18.596,11.727-28.48
			c4.641-8.745,10.371-16.435,13.403-26.805c9.616-13.956,17.021-35.316,26.805-51.935c0.52-0.888,0.955-2.53,1.675-3.351
			C99.345,205.304,102.645,203.394,102.645,203.662z M652.151,289.12c-0.017-4.021-4.372-6.199-6.701-8.377
			c-5.914-5.528-11.593-10.588-16.753-15.078c-6.148-5.361-11.56-10.555-16.753-15.078c-8.611-7.489-17.591-17.272-26.806-21.779
			c-72.424,26.42-143.441,54.247-216.117,80.416c-2.077,3.686,3.736,5.345,5.026,6.701c5.897,6.249,11.208,11.945,16.753,16.754
			c3.334,2.898,6.986,3.971,10.053,6.701c11.442,10.202,21.778,23.622,35.182,30.155C507.739,342.396,579.777,315.59,652.151,289.12
			z M637.074,143.367c2.58-3.099,6.282-5.914,6.701-10.052c-55.621-20.339-108.813-43.073-164.182-63.663
			c-23.204,18.68-43.24,40.526-65.338,60.312c45.066,20.858,93.182,39.371,137.376,58.637c10.957,4.774,21.344,11.962,33.507,13.402
			C601.809,182.184,621.711,161.795,637.074,143.367z M576.762,444.925c3.904-31.831,0.554-70.916,1.676-105.545
			c-1.307,0.368-3.301,0.05-3.351,1.675c-14.19,4.239-27.794,9.063-40.208,15.078c-2.982,0.922-6.952,0.854-8.377,3.351
			c-11.727,2.245-19.701,8.227-31.831,10.052c0,0.554,0,1.123,0,1.676c-11.124,2.278-20.773,6.031-28.48,11.728
			c-4.774-1.927-15.212,4.842-21.779,6.701c0,3.903,0,7.823,0,11.728c-4.791-0.235,1.441-11.493-3.351-11.728
			c-3.199,2.396-7.271,3.887-11.727,5.025c-14.542-11.693-27.342-25.163-41.884-36.856c-4.858-5.764-11.241-9.985-16.753-15.078
			c-2.43-4.842-8.059-6.467-11.728-10.052c0,3.351,0,6.701,0,10.052c0,4.473,0,8.93,0,13.402c0,28.48,0,56.961,0,85.441
			c0,4.474,0,8.93,0,13.403c0,11.727,0,23.454,0,35.182s0,23.454,0,35.182c32.669-10.89,63.662-23.454,95.494-35.182
			c26.737-10.119,54.364-19.351,80.415-30.156C549.807,455.949,562.17,449.331,576.762,444.925z M335.515,525.341
			c0-11.728,0-23.454,0-35.182s0-23.455,0-35.182c0-4.474,0-8.93,0-13.403c-1.122-27.928,2.229-60.312-1.675-85.441
			c-2.814,8.779-7.623,16.837-11.727,25.13c-3.92,7.925-10.119,16.15-11.728,25.13c-1.859,10.421,1.34,21.159,0,35.182
			c0,4.474,0,8.93,0,13.403c0,11.727,0,23.454,0,35.182c0,8.93,0,17.876,0,26.805C320.103,518.405,326.569,523.112,335.515,525.341z
			 M330.489,124.938c-7.07-13.235-18.964-22.633-28.48-33.506c-9.935-11.342-18.127-24.259-30.156-33.506
			c-70.498,22.215-143.324,42.084-214.442,63.662c2.362,7.824,9.901,11.577,15.078,16.753
			c11.074,11.074,20.137,23.069,30.156,33.506c5.277,5.495,11.392,11.543,18.429,15.078
			C189.779,165.163,260.394,145.31,330.489,124.938z M296.983,384.613c11.677-24.627,25.063-47.546,36.857-72.039
			c-55.419-21.36-111.375-42-165.857-61.987c-19.048-6.986-37.025-15.647-56.961-20.104c-11.543,24.208-24.577,46.909-35.182,72.039
			c54.783,21.009,109.801,42.001,164.182,61.987C258.584,371.328,277.633,379.169,296.983,384.613z M288.606,508.588
			c0-6.148,0-12.28,0-18.429c0-11.728,0-23.455,0-35.182c0-4.474,0-8.93,0-13.403c0-12.279,0-24.576,0-36.856
			c-10.103-1.625-16.15-7.305-26.805-8.377c0,15.078,0,30.156,0,45.233c0,4.474,0,8.93,0,13.403c0,11.727,0,23.454,0,35.182
			c0,1.122,0,2.229,0,3.351c-1.24,7.589,7.773,6.601,11.727,8.377C279.409,504.533,284.033,506.242,288.606,508.588z
			 M240.022,490.159c0-11.728,0-23.455,0-35.182c0-4.474,0-8.93,0-13.403c0-18.428,0-36.856,0-55.285
			c-9.968-1.206-16.469-5.864-25.13-8.377c0,21.227,0,42.437,0,63.662c0,4.474,0,8.93,0,13.403c0,8.929,0,17.875,0,26.805
			C224.224,483.608,231.779,487.228,240.022,490.159z M191.438,471.73c0-5.579,0-11.175,0-16.753c0-4.474,0-8.93,0-13.403
			c0-24.007,0-48.031,0-72.039c-7.505-4.222-16.82-6.634-25.13-10.052c0,27.358,0,54.733,0,82.091c0,4.474,0,8.93,0,13.403
			c0,1.122,0,2.228,0,3.351c-1.525,7.673,7.505,4.791,10.052,8.376C182.524,467.258,185.624,470.843,191.438,471.73z
			 M142.853,453.302c0-3.903,0-7.823,0-11.728c0-28.48,0-56.961,0-85.441c0-1.122,0-2.228,0-3.351
			c-5.529-5.646-15.346-6.986-23.455-10.052c-5.411-5.144-3.351,14.357-3.351,23.454c0,26.136-1.324,58.737,1.675,78.74
			C126.92,446.902,133.438,451.543,142.853,453.302z"/>
		<path fill="#B67132" d="M504.724,403.042c0.284,4.741,3.065,6.986,3.351,11.728c-2.413,0.385-0.587,4.992-3.351,5.025
			c-1.643-5.059-3.418-9.984-5.026-15.077C502.009,404.784,503.383,403.93,504.724,403.042z"/>
		<path fill="#004470" d="M576.762,441.574c0,1.123,0,2.229,0,3.351c-14.592,4.406-26.955,11.024-41.883,15.078
			c0-1.675-1.356-1.993-1.675-3.351c-12.851-3.903-32.938-0.569-48.585-1.675c-1.223-4.574,3.334-3.368,3.351-6.701
			c1.508-2.949,3.753-5.194,6.701-6.702c5.579,0,11.175,0,16.754,0c1.122,0,2.228,0,3.351,0c-0.536,3.887,0.268,6.434,1.675,8.377
			c7.255-0.017,10.639-3.887,18.429-3.351c-0.251-4.155-0.318-8.125,3.351-8.377c-3.635,3.485-0.084,5.713,3.351,6.701
			c0.051-1.625,2.044-1.307,3.351-1.675C552.504,439.665,566.476,442.463,576.762,441.574z"/>
		<path fill="#5D5963" d="M446.087,443.25c0,2.798,0,5.579,0,8.377c-0.553,0-1.123,0-1.676,0c0.067-4.289-1.239-2.044-3.351-1.676
			c0-2.798,0-5.579,0-8.377c0.553,0,1.123,0,1.676,0c0.653,10.388,0.854-0.117,3.351-1.675
			C446.087,441.021,446.087,442.128,446.087,443.25z"/>
		<path fill="#004470" d="M457.814,449.951c2.244,8.946-9.817,3.585-15.078,5.026c0-1.676,1.356-1.994,1.675-3.351
			c0.553,0,1.123,0,1.676,0c0-2.798,0-5.579,0-8.377c2.161-2.313,7.271-1.658,11.728-1.676
			C457.814,444.372,457.814,447.153,457.814,449.951z"/>
		<path fill="#004571" d="M370.697,342.73c5.512,5.093,11.895,9.314,16.753,15.078c-6.533-3.519-19.266-0.838-28.48-1.676
			c0-4.473,0-8.93,0-13.402C362.873,342.73,366.794,342.73,370.697,342.73z"/>
		<path fill="#8A96B5" d="M116.048,366.185c0-9.097-2.061-28.598,3.351-23.454c-3.786,1.257-0.653,9.398-1.675,13.402
			c0,28.48,0,56.961,0,85.441c0,1.123,0,2.229,0,3.351C114.724,424.922,116.048,392.32,116.048,366.185z"/>
		<path fill="#004471" d="M511.425,441.574c-5.579,0-11.175,0-16.754,0c4.356-23.22-3.953-34.88-21.779-41.883
			c-3.97-1.558-7.891-2.044-10.052-3.351c3.149-2.43,0.201-10.974,3.351-13.402c7.707-5.696,17.356-9.449,28.48-11.728
			c-0.82,5.294,3.016,5.914,1.676,11.728c-0.151,2.379-0.285,4.741,1.675,5.025c0.336,5.244-1.122,12.297,1.676,15.078
			c0,0.553,0,1.123,0,1.676c1.608,5.093,3.384,10.019,5.026,15.077c0.921,2.982,0.854,6.953,3.351,8.377
			C507.521,434.304,509.934,437.486,511.425,441.574z"/>
		<path fill="#8E6750" d="M514.775,389.64c2.178,2.864-1.039,9.448,1.675,15.078c-5.327-3.619-4.741-13.135-6.701-20.104
			C513.1,384.077,513.485,398.569,514.775,389.64z"/>
		<path fill="#004370" d="M240.022,454.978c0,11.727,0,23.454,0,35.182c-8.243-2.932-15.798-6.551-25.13-8.377
			c0-8.93,0-17.876,0-26.805C223.269,454.978,231.645,454.978,240.022,454.978z"/>
		<path fill="#5D5963" d="M514.775,441.574c-1.123,0-2.229,0-3.351,0c-1.491-4.088-3.904-7.271-3.351-13.402
			c1.356,0.318,1.675,1.676,3.351,1.676C514.223,432.075,511.978,439.347,514.775,441.574z"/>
		<path fill="#00436F" d="M288.606,490.159c0,6.148,0,12.28,0,18.429c-4.574-2.346-9.198-4.055-15.078-6.701
			c-3.954-1.776-12.967-0.788-11.727-8.377c0-1.122,0-2.229,0-3.351C270.73,490.159,279.677,490.159,288.606,490.159z"/>
		<path fill="#004370" d="M288.606,454.978c0,11.727,0,23.454,0,35.182c-8.93,0-17.876,0-26.805,0c0-11.728,0-23.455,0-35.182
			C270.73,454.978,279.677,454.978,288.606,454.978z"/>
		<path fill="#00436F" d="M358.97,490.159c31.831,0,63.662,0,95.494,0c-31.832,11.728-62.825,24.292-95.494,35.182
			C358.97,513.613,358.97,501.887,358.97,490.159z"/>
		<path fill="#EE7D00" d="M472.892,399.691c17.826,7.003,26.136,18.663,21.779,41.883c-2.948,1.508-5.193,3.753-6.701,6.702
			c-6.835,4.121-16.133,13.52-26.805,8.376c-4.558,1.206,1.206-7.907-3.351-6.701c0-2.798,0-5.579,0-8.377
			c1.859-5.395,12.749-1.759,15.077-6.701c1.189-8.443-2.998-11.509-5.025-16.753c3.937,0.536,3.753,5.177,6.701,6.701
			c1.709-5.763-3.619-6.5-5.026-8.377c-2.597-3.484-2.58-2.496-3.351-6.701c-11.174-2.479-19.668,2.748-21.779-8.376
			c0-3.904,0-7.824,0-11.728c6.567-1.859,17.005-8.628,21.779-6.701c-3.149,2.429-0.201,10.973-3.351,13.402
			C465.001,397.647,468.922,398.134,472.892,399.691z"/>
		<path fill="#004370" d="M335.515,454.978c0,11.727,0,23.454,0,35.182c-8.376,0-16.753,0-25.13,0c0-11.728,0-23.455,0-35.182
			C318.762,454.978,327.139,454.978,335.515,454.978z"/>
		<path fill="#EE7D00" d="M558.334,384.613c1.742,10.555,4.741,19.836,3.351,33.507c-3.418,0.503-4.457,3.351-6.701,5.026
			c-1.927,8.125-5.881,14.223-10.053,20.104c-1.307,0.368-3.3,0.05-3.351,1.675c-3.435-0.988-6.985-3.216-3.351-6.701
			c-3.669,0.252-3.602,4.222-3.351,8.377c-7.79-0.536-11.174,3.334-18.429,3.351c-1.407-1.943-2.211-4.49-1.675-8.377
			c-2.798-2.228-0.553-9.499-3.351-11.727c-0.135-5.998-2.597-9.684-3.351-15.078c-0.285-4.741-3.066-6.986-3.351-11.728
			c-1.341,0.888-2.715,1.742-5.026,1.676c0-0.553,0-1.123,0-1.676c3.92-1.206,5.109-13.737,1.675-16.753
			c1.207-5.127-1.708-6.099-1.675-10.052c-2.278,0.519-1.391,4.188-1.676,6.701c-0.553,0-1.122,0-1.675,0
			c1.34-5.813-2.496-6.434-1.676-11.728c0-0.553,0-1.122,0-1.676c12.13-1.825,20.104-7.807,31.831-10.052
			c5.395,1.307,11.107,2.296,15.078,5.026c0.302,1.424-0.653,1.574-1.675,1.675c0.921,4.658,6.483,4.691,10.052,6.702
			c0.485,3.417,4.54,3.283,5.026,6.701c0.888,1.34,1.742,2.714,1.675,5.025c-1.491-1.038-2.999-2.027-3.351,0
			C554.983,389.706,556.072,386.758,558.334,384.613z M539.905,419.795c6.685-3.316,2.63-8.945,0-8.376
			c3.233-10.957-1.894-25.298-8.377-31.831c-4.473,0-8.93,0-13.402,0c2.898,17.205,8.176,32.032,13.402,46.909
			C533.069,434.89,539.553,423.33,539.905,419.795z M516.45,404.718c-2.714-5.63,0.503-12.214-1.675-15.078
			c-1.29,8.93-1.676-5.563-5.026-5.026C511.709,391.583,511.123,401.099,516.45,404.718z"/>
		<path fill="#8E6750" d="M414.256,414.77c13.721,4.892,22.717,22.047,15.078,38.532c-7.07,0.754-8.444,7.188-18.429,5.026
			c-1.022-0.101-1.978-0.252-1.676-1.676c3.351,0,6.701,0,10.052,0c2.966-4.289,7.724-6.785,8.377-13.402
			C430.925,432.695,419.952,421.939,414.256,414.77z"/>
		<path fill="#004370" d="M533.204,456.652c0.318,1.357,1.675,1.676,1.675,3.351c-26.051,10.806-53.678,20.037-80.415,30.156
			c-31.832,0-63.663,0-95.494,0c0-11.728,0-23.455,0-35.182c7.254,0,14.525,0,21.779,0c1.927,2.747,3.317,6.198,6.701,8.376
			c2.915,1.894,7.12,6.249,11.728,8.377c11.61,5.345,35.584,0.201,40.208-13.402c1.826-0.419,1.139-3.334,3.351-3.351
			c5.261-1.441,17.322,3.92,15.078-5.026c4.557-1.206-1.207,7.907,3.351,6.701c-0.955,10.404,13.168,3.334,16.753,1.676
			c1.977-0.905,4.188-2.313,6.701-3.351C500.267,456.083,520.354,452.749,533.204,456.652z"/>
		<path fill="#004470" d="M427.658,443.25c-0.653,6.617-5.411,9.113-8.377,13.402c-3.351,0-6.701,0-10.052,0
			c-7.204-2.278-10.538-8.443-13.402-15.078C405.896,442.663,420.37,439.363,427.658,443.25z"/>
		<path fill="#8E6750" d="M508.074,414.77c0.754,5.395,3.216,9.08,3.351,15.078c-1.676,0-1.994-1.357-3.351-1.676
			c-2.497-1.424-2.43-5.395-3.351-8.377C507.487,419.762,505.661,415.154,508.074,414.77z"/>
		<path fill="#4A658F" d="M578.438,339.38c-1.122,34.629,2.229,73.714-1.676,105.545c0-1.122,0-2.228,0-3.351
			c0-28.48,0-56.961,0-85.441c-1.038-4.54,2.128-13.302-1.675-15.078C575.137,339.43,577.131,339.748,578.438,339.38z"/>
		<path fill="#00294C" d="M548.281,210.38c4.055,1.776,9.131,2.814,11.728,6.701c-64.148,21.729-129.033,47.278-192.662,70.364
			c-2.73,0.988-4.088,2.429-6.702,3.351c-18.881,6.701-25.448,0.101-43.558-6.701c-60.613-22.768-119.484-45.636-175.909-67.013
			c-8.561-3.25-17.038-2.63-20.104-10.052c22.332-4.457,48.434-13.771,67.013-20.104c2.446-0.838,6.031-0.955,8.376-1.675
			c57.128-17.558,112.716-33.59,169.208-50.26c1.123,0,2.229,0,3.351,0C428.513,160.137,491.237,185.351,548.281,210.38z"/>
		<path fill="#004572" d="M370.697,342.73c-3.903,0-7.824,0-11.728,0c0-3.351,0-6.701,0-10.052
			C362.639,336.264,368.268,337.889,370.697,342.73z"/>
		<path fill="#007BB0" d="M333.84,312.574c-11.794,24.493-25.18,47.412-36.857,72.039c-19.35-5.444-38.398-13.285-56.961-20.104
			c-54.381-19.986-109.399-40.979-164.182-61.987c10.605-25.13,23.639-47.831,35.182-72.039
			c19.936,4.457,37.913,13.118,56.961,20.104C222.464,270.574,278.42,291.214,333.84,312.574z"/>
		<path fill="#004471" d="M469.541,416.444c1.407,1.877,6.735,2.614,5.026,8.377c-2.948-1.524-2.765-6.165-6.701-6.701
			c2.027,5.244,6.215,8.31,5.025,16.753c-2.328,4.942-13.218,1.307-15.077,6.701c-4.457,0.018-9.566-0.637-11.728,1.676
			c0-1.122,0-2.229,0-3.351c-2.496,1.558-2.697,12.063-3.351,1.675c-0.117-6.584-0.805-12.598-3.351-16.753
			c-5.01-11.191-12.917-19.467-25.13-23.454c0.268-1.961,3.049-1.407,5.025-1.676c-10.822-8.226-20.572,15.245-5.025,15.078
			c5.696,7.17,16.669,17.926,13.402,28.48c-7.288-3.887-21.763-0.587-31.831-1.676c-8.661-16.418-0.452-40.643,13.402-45.233
			c0.436-4.909-3.786-5.144-3.351-10.052c-14.91-0.805-22.182,11.191-26.805,25.13c-1.961-0.269-1.407-3.049-1.676-5.026
			c-6.081,6.434-3.519,27.777-1.675,36.857c-3.167-2.966-11.058-1.223-16.754-1.676c0-28.48,0-56.961,0-85.441
			c9.215,0.838,21.947-1.843,28.48,1.676c14.542,11.693,27.342,25.163,41.884,36.856c4.456-1.139,8.527-2.63,11.727-5.025
			c4.792,0.234-1.44,11.492,3.351,11.728c2.111,11.124,10.605,5.896,21.779,8.376C466.961,413.948,466.944,412.96,469.541,416.444z
			 M380.749,403.042c-1.072-8.946,12.079-12.414,8.377-18.429C386.63,390.008,373.395,398.469,380.749,403.042z"/>
	</g>
	<g>
		<path fill="none" stroke="#1B1464" d="M231.645,46.198c1.793-1.659,12.364-3.786,21.779-6.701
			c8.192-2.546,16.268-7.12,18.429-6.701c5.914,1.139,4.875,6.182,10.052,8.376"/>
		<path fill="none" stroke="#1B1464" d="M166.308,66.302c21.528-6.953,42.872-14.089,65.337-20.104"/>
		<path fill="none" stroke="#1B1464" d="M54.061,151.743c-8.578-10.957-19.869-19.216-28.48-30.156
			c-0.821-4.406-9.231-5.646-5.026-10.052c48.869-14.793,97.102-30.223,145.753-45.234"/>
		<path fill="none" stroke="#1B1464" d="M64.113,161.795c-2.647-4.054-5.998-7.405-10.052-10.052"/>
		<path fill="none" stroke="#1B1464" d="M99.294,198.652c-10.739-13.269-24.443-23.588-35.182-36.857"/>
		<path fill="none" stroke="#1B1464" d="M102.645,203.678v-0.017c0.788-2.111,0.201-3.635-3.351-5.009"/>
		<path fill="none" stroke="#1B1464" d="M70.814,260.64c9.616-13.956,17.021-35.316,26.805-51.935
			c0.52-0.888,0.955-2.53,1.675-3.351c0.05-0.05,3.351-1.96,3.351-1.692"/>
		<path fill="none" stroke="#1B1464" d="M57.411,287.445c4.641-8.745,10.371-16.435,13.403-26.805"/>
		<path fill="none" stroke="#1B1464" d="M94.269,332.679c-17.122-4.657-30.709-12.85-48.584-16.754
			c0.788-12.615,8.209-18.596,11.727-28.48"/>
		<path fill="none" stroke="#1B1464" d="M95.944,460.003c-1.123-41.883,2.228-88.239-1.675-127.324"/>
		<path fill="none" stroke="#1B1464" d="M174.684,490.159c-25.448-10.856-52.438-20.171-78.74-30.156"/>
		<path fill="none" stroke="#1B1464" d="M340.542,552.146c-5.646-4.977-13.185-5.914-20.104-8.377
			c-46.356-16.519-96.365-37.478-145.753-53.61"/>
		<path fill="none" stroke="#1B1464" d="M352.269,552.146c-3.719,3.887-6.534-0.57-11.727,0"/>
		<path fill="none" stroke="#1B1464" d="M521.477,490.159c-58.15,18.914-112.716,41.414-169.208,61.987"/>
		<path fill="none" stroke="#1B1464" d="M598.541,460.003c-24.962,10.772-53.241,18.244-77.064,30.156"/>
		<path fill="none" stroke="#1B1464" d="M600.217,331.003c-0.553,0-1.122,0-1.676,0c0,43.006,0,85.995,0,129"/>
		<path fill="none" stroke="#1B1464" d="M685.658,287.445c1.039,4.54,7.003,4.171,6.701,10.052
			c-31.445,10.437-61.149,22.617-92.143,33.506"/>
		<path fill="none" stroke="#1B1464" d="M655.503,260.64c2.178,2.748,4.121,6.115,6.701,8.376c2.714,2.396,5.913,2.781,8.376,5.026
			c4.758,4.339,7.791,11.878,15.078,13.403"/>
		<path fill="none" stroke="#1B1464" d="M627.021,191.951c-6.751,7.773-13.402,15.631-20.104,23.455
			c0.218,7.036,7.807,8.108,11.728,11.727c11.208,10.371,22.667,23.874,36.857,33.507"/>
		<path fill="none" stroke="#1B1464" d="M653.827,161.795c-10.304,8.695-17.792,20.171-26.806,30.156"/>
		<path fill="none" stroke="#1B1464" d="M665.555,146.717c-3.167,5.763-9.7,8.159-11.728,15.078"/>
		<path fill="none" stroke="#1B1464" d="M528.178,64.626c24.409,12.38,51.03,20.154,77.065,30.156
			c25.615,9.834,50.896,21.562,77.064,30.156c-3.618,9.214-11.476,14.207-16.753,21.779"/>
		<path fill="none" stroke="#1B1464" d="M476.242,46.198c18.312,5.126,32.837,14.073,51.936,18.429"/>
		<path fill="none" stroke="#1B1464" d="M369.021,134.99c-0.05-3.066,1.324-4.674,3.351-6.702c3.669-3.669,7.606-4.892,11.728-8.376
			c0.486-0.419,1.224-3.149,1.676-3.351c7.823-3.535,15.781-12.213,23.454-18.429c13.956-11.308,28.598-21.595,41.883-33.506"/>
		<path fill="none" stroke="#1B1464" d="M303.684,64.626c10.605,11.744,21.059,23.588,31.831,35.182
			c10.404,11.191,22.684,21.227,30.156,35.182"/>
		<path fill="none" stroke="#1B1464" d="M303.684,64.626c-7.857-7.221-14.508-15.647-21.779-23.455"/>
		<path fill="none" stroke="#1B1464" d="M474.567,46.198c-8.159,5.813-15.598,12.331-23.455,18.429"/>
	</g>
</g>
</svg>
