<?xml version="1.0" encoding="utf-8"?>
<!-- Generator: Adobe Illustrator 15.0.0, SVG Export Plug-In . SVG Version: 6.00 Build 0)  -->
<!DOCTYPE svg PUBLIC "-//W3C//DTD SVG 1.1//EN" "http://www.w3.org/Graphics/SVG/1.1/DTD/svg11.dtd">
<svg version="1.1" id="Layer_1" xmlns="http://www.w3.org/2000/svg" xmlns:xlink="http://www.w3.org/1999/xlink" x="0px" y="0px"
	 width="720px" height="600px" viewBox="0 0 720 600" enable-background="new 0 0 720 600" xml:space="preserve">
<g id="XMLID_2_">
	<g>
		<path fill="#FFFFFF" d="M616.276,514.432c0,14.55,0,29.1,0,43.65c-0.96,9.225,1.921,22.29-1.455,29.1
			c-172.665,0-345.316,0-517.981,0c0-9.705,0-19.396,0-29.1c0-14.551,0-29.101,0-43.65c0-1.936,0-3.885,0-5.82
			c0-12.12,0-24.255,0-36.375c0-16.485,0-32.984,0-49.47c0-26.671,0-53.355,0-80.025c0-1.455,0-2.91,0-4.365
			c0-13.095,0-26.189,0-39.285c0-15.525,0-31.035,0-46.56c0-3.885,0-7.755,0-11.64c0.393-2.691,4.146-4.656,5.82-5.82
			c28.678-19.934,58.593-44.625,87.3-66.93c14.55-11.64,30.468-21.912,43.65-34.92c4.568,0.684,3.841-3.914,7.275-4.365
			c18.639-15.307,38.863-29.042,56.745-45.105c18.711-13.299,37.103-26.917,53.835-42.195c5.311-3.099,7.101-2.313,11.64,1.455
			c8.381,7.144,17.053,13.982,26.19,20.37c8.366-7.159,16.121-14.914,23.28-23.28c-1.136-6.62-7.857-7.667-10.186-13.095
			c6.432-5.209,12.251-11.029,17.46-17.46c5.238,2.997,7.857,8.643,13.095,11.64c33.829,35.037,68.27,69.477,103.306,103.306
			c2.008,4.292,6.723,5.893,8.73,10.185c-6.432,5.208-12.252,11.029-17.46,17.46c-4.947-1.848-5.515-8.075-11.641-8.73
			c-1.382,4.496-10.956,8.366-8.729,11.64c4.67,5.035,10.549,8.847,16.005,13.095c31.21,23.585,60.484,49.121,93.12,71.295
			c0,4.365,0,8.73,0,13.095c0,15.525,0,31.035,0,46.56c0,13.096,0,26.19,0,39.285c0,1.455,0,2.91,0,4.365c0,26.67,0,53.354,0,80.025
			c0,16.485,0,32.984,0,49.47c0,12.12,0,24.255,0,36.375C616.276,510.547,616.276,512.496,616.276,514.432z M594.451,549.352
			c0-96.03,0-192.061,0-288.091c-158.115,0-316.216,0-474.331,0c0,96.03,0,192.061,0,288.091c6.038-0.437,8.643-5.369,13.095-8.729
			c73.391-55.247,148.279-109.286,221.161-162.961c78.789,57.982,159.207,114.334,237.166,173.146
			C592.676,550.486,594.407,550.763,594.451,549.352z M571.171,563.901c1.862-3.303-2.938-3.259-4.365-4.364
			c-6.838-5.297-13.618-9.647-20.369-14.551c-63.206-45.92-127.08-94.386-190.606-138.225c-0.029-1.906-4.03-1.849-4.365,0
			c-65.14,47.84-135.897,99.886-199.335,148.41c-3.463,2.647-14.055,6.271-8.73,8.729
			C285.99,563.901,428.581,563.901,571.171,563.901z M576.991,236.526c-30.613-20.312-56.41-45.44-87.301-65.475
			c-11.756,10.549-22.916,21.708-33.465,33.465c-6.679,4.467-10.781,11.538-17.46,16.005c-3.303,6.431-14.885,12.251-14.55,17.46
			C474.661,237.006,528.976,239.916,576.991,236.526z M505.696,133.221c-0.713-4.045-4.511-7.333-7.275-10.185
			c-24.196-24.881-50.576-49.136-74.205-72.75c-0.48,0-0.975,0-1.455,0c-58.986,56.862-119.048,119.049-176.056,176.056
			c-3.375,3.375-9.428,5.951-10.185,11.64c18.101,0,35.866,0,53.835,0c17.693,0,35.618,2.241,50.925,0
			c1.251-0.189,5.515-2.91,7.275-2.91c-0.087,0,1.28,2.823,1.455,2.91c8.948,4.481,22.989-3.361,32.01,0
			c-0.146-5.704-12.222-12.004-16.005-18.915c2.939-3.361,4.83-7.77,10.185-8.73c8.119,9.341,16.85,18.071,26.19,26.19
			c0.48,0,0.975,0,1.455,0c5.937-4.729,11.276-10.069,16.005-16.005c-2.968-8.701-30.046-23.033-25.942-31.559
			c0.538-0.684,1.076-1.339,1.658-1.964c1.426-1.106,3.638-2.081,6.824-2.852c8.119,9.341,16.849,18.071,26.19,26.19
			c0.479,0,0.975,0,1.455,0c5.936-4.729,11.276-10.069,16.005-16.005c-8.614-9.821-17.824-19.031-27.646-27.645
			c1.601-5.194,4.991-8.584,10.186-10.185c8.613,9.821,17.823,19.032,27.645,27.645c5.937-4.729,11.276-10.068,16.005-16.005
			c-8.613-9.821-17.823-19.031-27.645-27.645c1.135-4.743,7.856-11.465,10.185-10.185c3.274,5.383,9.574,9.574,14.551,14.55
			c3.754,3.754,7.027,10.069,11.494,11.48c0.059,0.059,0.102,0.102,0.146,0.16c0.16,0,0.32,0,0.48,0c0.771,0.16,1.586,0.175,2.43,0
			C490.287,147.887,499.279,141.834,505.696,133.221z M373.291,79.385c-5.369-4.816-10.563-9.807-17.46-13.095
			c-5.515,6.125-13.561,9.719-18.915,16.005c-20.108,14.317-39.3,29.565-58.2,45.105c-1.935,1.455-4.394,2.401-5.82,4.365
			c-15.467,11.218-30.25,23.105-45.105,34.92c-30.788,23.542-61.343,47.302-91.665,71.295c26.19,0,52.38,0,78.57,0
			C268.167,185.717,321.027,132.857,373.291,79.385z"/>
		<path fill="#004D7C" d="M594.451,261.261c0,96.03,0,192.061,0,288.091c-0.044,1.411-1.775,1.135-2.91,1.455
			c-77.959-58.812-158.377-115.163-237.166-173.146c-72.881,53.675-147.77,107.714-221.161,162.961
			c-4.452,3.36-7.057,8.293-13.095,8.729c0-96.03,0-192.061,0-288.091C278.235,261.261,436.336,261.261,594.451,261.261z"/>
		<path fill="#004D7C" d="M566.806,559.537c1.427,1.105,6.228,1.062,4.365,4.364c-142.59,0-285.181,0-427.771,0
			c-5.325-2.459,5.267-6.082,8.73-8.729c63.438-48.524,134.195-100.57,199.335-148.41c0.335-1.849,4.336-1.906,4.365,0
			c63.526,43.839,127.4,92.305,190.606,138.225C553.188,549.89,559.968,554.24,566.806,559.537z"/>
		<path fill="#193E64" d="M546.437,133.221c0,0.975,0,1.935,0,2.91c-7.174,4.962-11.742,12.499-18.915,17.46c0-0.48,0-0.975,0-1.455
			c6.431-5.209,12.251-11.029,17.46-17.46c-2.008-4.292-6.723-5.893-8.73-10.185c1.906,0.509,2.284,2.561,4.365,2.91
			C541.926,129.961,543.875,131.911,546.437,133.221z"/>
		<path fill="#09365C" d="M489.69,171.051c30.891,20.035,56.688,45.163,87.301,65.475c-48.016,3.39-102.33,0.48-152.775,1.455
			C445.197,214.817,468.71,194.214,489.69,171.051z"/>
		<path fill="#CBCAD9" d="M544.981,134.676c-5.209,6.431-11.029,12.251-17.46,17.46C532.729,145.705,538.55,139.884,544.981,134.676
			z"/>
		<path fill="#667090" d="M527.521,152.136c0,0.48,0,0.975,0,1.455c-4.293-2.008-5.894-6.722-10.186-8.73
			c-4.001,2.779-7.406,6.184-10.185,10.185c-2.227-3.273,7.348-7.144,8.729-11.64C522.007,144.061,522.574,150.288,527.521,152.136z
			"/>
		<path fill="#969EB7" d="M496.966,83.75c12.251,14.434,27.034,26.306,39.285,40.74c-35.036-33.829-69.477-68.269-103.306-103.306
			c8.134,5.937,13.692,14.434,21.825,20.37C468.229,56.222,482.3,70.292,496.966,83.75z"/>
		<path fill="#5D9BC3" d="M498.421,123.036c2.765,2.852,6.563,6.14,7.275,10.185c-26.307-28.489-55.174-54.446-81.48-82.936
			C447.845,73.9,474.225,98.155,498.421,123.036z"/>
		<path fill="#007BB0" d="M505.696,133.221c-6.417,8.613-15.409,14.667-21.825,23.28c-0.815,0-1.615,0-2.43,0
			c-0.204-0.043-0.422-0.087-0.626-0.16c-8.075-9.283-16.762-17.955-26.045-26.03c-2.328-1.28-9.05,5.442-10.185,10.185
			c7.871,10.068,18.318,17.576,26.189,27.645c-4.248,5.456-9.094,10.316-14.55,14.55c-0.479,0-0.975,0-1.455,0
			c-8.118-9.341-16.849-18.071-26.189-26.19c-5.194,1.601-8.585,4.991-10.186,10.185c7.872,10.069,18.318,17.577,26.19,27.645
			c-4.249,5.457-9.094,10.316-14.55,14.55c-0.48,0-0.976,0-1.455,0c-8.119-9.341-16.85-18.071-26.19-26.19
			c-2.982,0.713-5.063,2.357-6.824,4.307c-0.785,0.611-1.324,1.266-1.658,1.964c-1.033,1.31-2.037,2.663-3.157,3.914
			c8.613,9.821,17.823,19.032,27.645,27.646c-3.986,6.198-10.563,9.807-14.55,16.005c-0.48,0-0.975,0-1.455,0
			c-7.871-10.069-18.318-17.577-26.19-27.645c-5.863,1.411-8.191,6.358-11.64,10.185c4.962,7.173,12.498,11.742,17.46,18.915
			c-9.021-3.361-23.062,4.481-32.01,0c-0.175-0.087-1.542-2.91-1.455-2.91c-1.761,0-6.024,2.721-7.275,2.91
			c-15.307,2.241-33.232,0-50.925,0c-17.969,0-35.735,0-53.835,0c61.227-63.409,125.014-124.287,186.241-187.696
			c0.48,0,0.975,0,1.455,0C450.522,78.774,479.39,104.731,505.696,133.221z"/>
		<path fill="#D7E3F0" d="M481.441,156.5c0.814,0,1.614,0,2.43,0C483.027,156.675,482.212,156.661,481.441,156.5z"/>
		<path fill="#FFFFFF" d="M481.441,156.5c-0.16,0-0.32,0-0.48,0c-0.044-0.058-0.087-0.102-0.146-0.16
			C481.02,156.413,481.237,156.457,481.441,156.5z"/>
		<path fill="#5D9BC3" d="M472.23,168.141c-0.479,0-0.975,0-1.455,0c-7.871-10.069-18.318-17.577-26.189-27.645
			C454.407,149.109,463.617,158.319,472.23,168.141z"/>
		<path fill="#D7E3F0" d="M470.775,168.141c0.48,0,0.976,0,1.455,0c-4.729,5.937-10.068,11.276-16.005,16.005
			c0-0.48,0-0.975,0-1.455C461.682,178.457,466.527,173.597,470.775,168.141z"/>
		<path fill="#D7E3F0" d="M480.815,156.34c-4.467-1.411-7.74-7.726-11.494-11.48c-4.977-4.976-11.276-9.167-14.551-14.55
			C464.054,138.386,472.74,147.058,480.815,156.34z"/>
		<path fill="#667090" d="M489.69,171.051c-20.98,23.164-44.493,43.767-65.475,66.93c-0.335-5.209,11.247-11.029,14.55-17.46
			c6.679-4.467,10.781-11.539,17.46-16.005C466.774,192.759,477.935,181.6,489.69,171.051z"/>
		<path fill="#A8C8E2" d="M456.226,182.691c0,0.48,0,0.975,0,1.455c-9.821-8.613-19.031-17.824-27.645-27.645
			c9.341,8.119,18.071,16.849,26.189,26.19C455.251,182.691,455.746,182.691,456.226,182.691z"/>
		<path fill="#A8C8E2" d="M446.041,194.331c-0.48,0-0.975,0-1.455,0c-7.872-10.068-18.318-17.576-26.19-27.645
			C428.217,175.299,437.427,184.509,446.041,194.331z"/>
		<path fill="#D7E3F0" d="M444.586,194.331c0.48,0,0.975,0,1.455,0c-4.729,5.937-10.069,11.276-16.005,16.005
			c0-0.48,0-0.975,0-1.455C435.492,204.646,440.337,199.787,444.586,194.331z"/>
		<path fill="#1C85B4" d="M430.036,208.881c0,0.48,0,0.975,0,1.455c-0.48,0-0.976,0-1.455,0
			c-7.872-10.069-18.318-17.577-26.19-27.645c9.341,8.119,18.071,16.849,26.19,26.19
			C429.061,208.881,429.556,208.881,430.036,208.881z"/>
		<path fill="#EEF1F6" d="M419.851,220.521c-0.48,0-0.975,0-1.455,0c-8.613-9.821-17.823-19.032-27.645-27.646
			c1.12-1.251,2.124-2.604,3.157-3.914C389.805,197.488,416.883,211.82,419.851,220.521z"/>
		<path fill="#D7E3F0" d="M418.396,220.521c0.48,0,0.975,0,1.455,0c-4.729,5.936-10.068,11.276-16.005,16.005
			C407.832,230.328,414.409,226.719,418.396,220.521z"/>
		<path fill="#EEF1F6" d="M402.391,182.691c7.872,10.068,18.318,17.576,26.19,27.645c-9.342-8.119-18.071-16.849-26.19-26.19
			c-3.187,0.771-5.398,1.746-6.824,2.852C397.327,185.048,399.408,183.404,402.391,182.691z"/>
		<path fill="#969EB7" d="M409.666,41.555c1.455,0,1.731-1.178,2.91-1.455c-7.159,8.367-14.914,16.122-23.28,23.28
			C395.232,55.247,403.729,49.689,409.666,41.555z"/>
		<path fill="#667090" d="M419.851,9.545c-5.209,6.431-11.028,12.251-17.46,17.46C407.6,20.574,413.42,14.754,419.851,9.545z"/>
		<path fill="#FFFFFF" d="M395.566,186.998c-0.582,0.625-1.12,1.28-1.658,1.964C394.242,188.263,394.781,187.608,395.566,186.998z"
			/>
		<path fill="#1C85B4" d="M390.751,192.875c9.821,8.614,19.031,17.824,27.645,27.646
			C408.574,211.907,399.364,202.697,390.751,192.875z"/>
		<path fill="#D7E3F0" d="M376.2,208.881c7.872,10.068,18.319,17.576,26.19,27.645c-9.341-8.119-18.071-16.849-26.19-26.19
			c-5.354,0.96-7.245,5.369-10.185,8.73c-0.48,0-0.975,0-1.455,0C368.009,215.239,370.337,210.292,376.2,208.881z"/>
		<path fill="#5D9BC3" d="M366.016,219.066c3.783,6.911,15.859,13.211,16.005,18.915c-4.962-7.173-12.498-11.742-17.46-18.915
			C365.041,219.066,365.535,219.066,366.016,219.066z"/>
		<path fill="#09365C" d="M373.291,79.385c-2.969,0.422-2.853,3.943-5.82,4.365c-13.939,15.161-28.489,29.711-43.65,43.65
			c-1.31,2.561-3.259,4.511-5.82,5.82c-10.549,11.756-21.708,22.916-33.465,33.465c-22.436,24.619-47.404,46.677-69.84,71.295
			c-26.19,0-52.38,0-78.57,0c30.322-23.993,60.877-47.753,91.665-71.295c14.856-11.814,29.639-23.702,45.105-34.92
			c1.426-1.964,3.885-2.91,5.82-4.365c18.9-15.54,38.092-30.788,58.2-45.105c5.354-6.286,13.4-9.879,18.915-16.005
			C362.728,69.579,367.922,74.569,373.291,79.385z"/>
		<path fill="#969EB7" d="M367.471,83.75c2.968-0.422,2.852-3.943,5.82-4.365c-52.264,53.472-105.125,106.332-158.596,158.596
			c22.436-24.619,47.404-46.677,69.84-71.295c11.757-10.549,22.917-21.708,33.465-33.465c2.561-1.31,4.51-3.259,5.82-5.82
			C338.981,113.461,353.532,98.912,367.471,83.75z"/>
		<path fill="#A8C8E2" d="M422.761,50.285c-61.227,63.409-125.014,124.287-186.241,187.696c0.757-5.689,6.81-8.265,10.185-11.64
			C303.712,169.334,363.774,107.147,422.761,50.285z"/>
	</g>
	<g>
		<path fill="none" stroke="#1B1464" d="M363.105,43.01c8.381,7.144,17.053,13.982,26.19,20.37"/>
		<path fill="none" stroke="#1B1464" d="M297.63,83.75c18.711-13.299,37.103-26.917,53.835-42.195"/>
		<path fill="none" stroke="#1B1464" d="M240.885,128.855c18.639-15.307,38.863-29.042,56.745-45.105"/>
		<path fill="none" stroke="#1B1464" d="M233.61,133.221c4.568,0.684,3.841-3.914,7.275-4.365"/>
		<path fill="none" stroke="#1B1464" d="M189.96,168.141c14.55-11.64,30.468-21.912,43.65-34.92"/>
		<path fill="none" stroke="#1B1464" d="M96.84,252.531c0-3.885,0-7.755,0-11.64c0.393-2.691,4.146-4.656,5.82-5.82
			c28.678-19.934,58.593-44.625,87.3-66.93"/>
		<path fill="none" stroke="#1B1464" d="M96.84,299.091c0-15.525,0-31.035,0-46.56"/>
		<path fill="none" stroke="#1B1464" d="M96.84,338.376c0-13.095,0-26.189,0-39.285"/>
		<path fill="none" stroke="#1B1464" d="M96.84,342.741c0-1.455,0-2.91,0-4.365"/>
		<path fill="none" stroke="#1B1464" d="M96.84,422.767c0-26.671,0-53.355,0-80.025"/>
		<path fill="none" stroke="#1B1464" d="M96.84,472.236c0-16.485,0-32.984,0-49.47"/>
		<path fill="none" stroke="#1B1464" d="M96.84,508.611c0-12.12,0-24.255,0-36.375"/>
		<path fill="none" stroke="#1B1464" d="M96.84,514.432c0-1.936,0-3.885,0-5.82"/>
		<path fill="none" stroke="#1B1464" d="M96.84,558.082c0-14.551,0-29.101,0-43.65"/>
		<path fill="none" stroke="#1B1464" d="M616.276,558.082c-0.96,9.225,1.921,22.29-1.455,29.1c-172.665,0-345.316,0-517.981,0
			c0-9.705,0-19.396,0-29.1"/>
		<path fill="none" stroke="#1B1464" d="M616.276,514.432c0,14.55,0,29.1,0,43.65"/>
		<path fill="none" stroke="#1B1464" d="M616.276,508.611c0,1.936,0,3.885,0,5.82"/>
		<path fill="none" stroke="#1B1464" d="M616.276,472.236c0,12.12,0,24.255,0,36.375"/>
		<path fill="none" stroke="#1B1464" d="M616.276,422.767c0,16.485,0,32.984,0,49.47"/>
		<path fill="none" stroke="#1B1464" d="M616.276,342.741c0,26.67,0,53.354,0,80.025"/>
		<path fill="none" stroke="#1B1464" d="M616.276,338.376c0,1.455,0,2.91,0,4.365"/>
		<path fill="none" stroke="#1B1464" d="M616.276,299.091c0,13.096,0,26.19,0,39.285"/>
		<path fill="none" stroke="#1B1464" d="M616.276,252.531c0,15.525,0,31.035,0,46.56"/>
		<path fill="none" stroke="#1B1464" d="M523.156,168.141c31.21,23.585,60.484,49.121,93.12,71.295c0,4.365,0,8.73,0,13.095"/>
		<path fill="none" stroke="#1B1464" d="M507.151,155.045c4.67,5.035,10.549,8.847,16.005,13.095"/>
		<path fill="none" stroke="#1B1464" d="M412.576,40.1c-7.159,8.367-14.914,16.122-23.28,23.28"/>
		<path fill="none" stroke="#1B1464" d="M527.521,153.591c-4.293-2.008-5.894-6.722-10.186-8.73
			c-4.001,2.779-7.406,6.184-10.185,10.185"/>
		<path fill="none" stroke="#1B1464" d="M432.945,21.185c-5.237-2.997-7.856-8.643-13.095-11.64"/>
		<path fill="none" stroke="#1B1464" d="M363.105,43.01c-4.54-3.769-6.329-4.554-11.64-1.455"/>
		<path fill="none" stroke="#1B1464" d="M402.391,27.005c2.328,5.427,9.05,6.475,10.186,13.095"/>
		<path fill="none" stroke="#1B1464" d="M419.851,9.545c-6.431,5.208-12.251,11.029-17.46,17.46"/>
		<path fill="none" stroke="#1B1464" d="M536.251,124.491c-35.036-33.829-69.477-68.269-103.306-103.306"/>
	</g>
</g>
</svg>
