<?xml version="1.0" encoding="utf-8"?>
<!-- Generator: Adobe Illustrator 15.0.0, SVG Export Plug-In . SVG Version: 6.00 Build 0)  -->
<!DOCTYPE svg PUBLIC "-//W3C//DTD SVG 1.1//EN" "http://www.w3.org/Graphics/SVG/1.1/DTD/svg11.dtd">
<svg version="1.1" id="Layer_1" xmlns="http://www.w3.org/2000/svg" xmlns:xlink="http://www.w3.org/1999/xlink" x="0px" y="0px"
	 width="720px" height="600px" viewBox="0 0 720 600" enable-background="new 0 0 720 600" xml:space="preserve">
<g id="XMLID_2_">
	<g>
		<path fill="#C4976B" d="M602.649,89.759c2.037,4.542,2.037,17.551,0,22.092C602.649,104.487,602.649,97.124,602.649,89.759z"/>
		<path fill="#EE7D00" d="M597.74,66.44c-0.013,9.414,5.56,13.255,4.909,23.319c0,7.364,0,14.728,0,22.092c0,1.228,0,2.455,0,3.682
			c-3.657,12.298-6.604,25.308-13.501,34.365c-9.659,15.71-22.742,27.983-40.502,35.593c-6.591,4.455-17.023,5.069-24.547,8.591
			c-2.86,0-5.732,0-8.592,0c-4.087,0-8.187,0-12.273,0c-1.228,0-2.454,0-3.682,0c-5.303-2.062-12.531-2.197-18.41-3.682
			c-0.271-0.958-1.031-1.424-2.455-1.228c-4.468-1.264-7.597-3.866-12.273-4.909c0.221-1.043-0.479-1.154-1.228-1.227
			c-6.677-0.97-10.31-10.58-17.183-7.364c-1.043-0.221-1.153,0.479-1.228,1.228c-8.002,2.295-17.354,5.83-24.546,8.591
			c-2.848,1.092-4.91,3.768-7.364,2.455c3.437-8.432,7.561-16.164,9.818-25.774c0.749-0.073,1.448-0.184,1.228-1.227
			c0.981-3.928,3.62-6.198,3.682-11.046c-4.909-6.959-7.425-16.311-11.046-24.546c0-0.405,0-0.823,0-1.228
			c-1.387-3.522-0.245-9.573-2.454-12.273c0-0.405,0-0.822,0-1.228c0-0.405,0-0.822,0-1.227c0-5.732,0-11.451,0-17.183
			c0.527-9.291,3.743-15.894,4.909-24.546c9.635-23.099,25.283-40.171,46.639-51.548c0.822,0,1.633,0,2.455,0
			c20.349-13.157,60.201-11.476,81.004,0C572.775,26.76,587.185,44.679,597.74,66.44z M594.058,111.852
			c3.093-30.205-7.622-50.002-18.41-65.049c-6.542-9.106-16.569-15.906-25.774-20.865C527.77,14.02,499.54,13.001,477.46,22.256
			c-9.806,4.111-18.029,9.278-24.547,14.728c-3.743,3.129-5.167,4.492-7.363,7.364c-5.843,7.634-9.721,13.439-13.501,22.092
			c-3.584,8.199-6.443,14.618-7.364,24.547c-1.632,17.563,1.951,31.58,6.137,41.729c2.467,6.002,6.689,10.985,8.592,18.41
			c-2.934,6.885-5.364,14.274-8.592,20.865c8.824-0.994,13.845-5.793,22.092-7.364c20.669,15.833,42.11,23.7,67.504,20.865
			C555.359,181.589,590.155,149.973,594.058,111.852z"/>
		<path fill="#FFFFFF" d="M575.647,46.802c10.788,15.047,21.503,34.844,18.41,65.049c-3.902,38.121-38.698,69.737-73.641,73.641
			c-25.394,2.835-46.835-5.032-67.504-20.865c-8.247,1.571-13.268,6.37-22.092,7.364c3.228-6.591,5.658-13.979,8.592-20.865
			c-1.902-7.425-6.125-12.408-8.592-18.41c-4.186-10.15-7.769-24.167-6.137-41.729c0.921-9.929,3.78-16.348,7.364-24.547
			c3.78-8.653,7.658-14.458,13.501-22.092c2.196-2.872,3.62-4.234,7.363-7.364c6.518-5.45,14.741-10.617,24.547-14.728
			c22.08-9.254,50.31-8.236,72.413,3.682C559.078,30.896,569.105,37.696,575.647,46.802z M562.146,120.443
			c-0.81-13.096,1.633-29.444-1.227-40.502c-10.224,0-20.46,0-30.684,0c-0.811-10.236,1.62-23.712-1.228-31.911
			c-13.096,0-26.18,0-39.275,0c-2.847,8.199-0.417,21.675-1.227,31.911c-10.225,0-20.46,0-30.684,0
			c-2.86,11.058-0.418,27.406-1.228,40.502c8.198,2.848,21.675,0.417,31.911,1.228c2.822,7.327-3.731,26.204,0,30.684
			c2.725,3.265,14.998,1.227,20.864,1.227c8.174,0,16.041,0.92,20.865-1.227c0-10.224,0-20.46,0-30.684
			C540.472,120.86,553.948,123.291,562.146,120.443z"/>
		<path fill="#F1A230" d="M562.146,120.443c-0.404,0-0.822,0-1.227,0c0-13.5,0-27.001,0-40.502
			C563.779,90.999,561.337,107.347,562.146,120.443z"/>
		<path fill="#F6C584" d="M560.92,120.443c0.404,0,0.822,0,1.227,0c-8.198,2.848-21.675,0.417-31.91,1.228
			C538.018,118.823,551.089,121.253,560.92,120.443z"/>
		<path fill="#EE7D00" d="M560.92,79.941c0,13.5,0,27.001,0,40.502c-9.831,0.81-22.902-1.62-30.684,1.228
			c-2.848,7.781-0.418,20.853-1.228,30.684c-8.751-2.786-34.722,4.247-39.275-1.228c-1.73-2.074,0-11.12,0-14.728
			c0-5.977,0-10.555,0-15.956c-10.641,0-21.27,0-31.91,0c0-13.5,0-27.001,0-40.502c10.224,0,20.459,0,30.684,0
			c2.847-8.199,0.417-21.675,1.227-31.911c13.096,0,26.18,0,39.275,0c0.81,10.236-1.62,23.712,1.228,31.911
			C540.46,79.941,550.696,79.941,560.92,79.941z M552.328,111.852c2.848-5.339,0.43-15.943,1.228-23.319
			c-10.236-0.81-23.712,1.62-31.911-1.228c-0.81-9.831,1.62-22.902-1.228-30.684c-6.971,0.798-17.158-1.608-22.092,1.228
			c-2.848,7.781-0.417,20.853-1.228,30.684c-9.831,0.81-22.902-1.62-30.684,1.227c-2.037,4.542-2.037,17.551,0,22.092
			c10.224,0,20.46,0,30.684,0c0.725,10.727-1.51,24.424,1.228,33.138c6.972-0.798,17.158,1.608,22.092-1.228
			c2.848-8.198,0.418-21.675,1.228-31.911C531.868,111.852,542.104,111.852,552.328,111.852z"/>
		<path fill="#F6C584" d="M553.556,88.532c-0.798,7.376,1.62,17.98-1.228,23.319c0-7.364,0-14.728,0-22.092
			c-10.322-0.724-23.602,1.51-31.911-1.227c0-10.224,0-20.46,0-30.684c0-0.405,0-0.822,0-1.228
			c2.848,7.781,0.418,20.853,1.228,30.684C529.844,90.152,543.319,87.722,553.556,88.532z"/>
		<path fill="#FFFFFF" d="M552.328,89.759c0,7.364,0,14.728,0,22.092c-10.224,0-20.46,0-30.684,0
			c-2.848,8.199-0.417,21.675-1.228,31.911c-5.154-2-19.429,2.664-22.092,0c-1.362-1.362,0.024-11.144,0-15.955
			c-0.037-6.247,1.067-12.384-1.228-15.956c-10.224,0-20.46,0-30.684,0c0-7.364,0-14.728,0-22.092
			c10.236-0.81,23.713,1.62,31.911-1.227c0-10.224,0-20.46,0-30.684c7.364,0,14.729,0,22.092,0c0,10.224,0,20.459,0,30.684
			C528.727,91.269,542.006,89.035,552.328,89.759z"/>
		<path fill="#F1A230" d="M530.236,121.67c0,10.224,0,20.459,0,30.684c-0.405,0-0.822,0-1.228,0
			C529.818,142.523,527.389,129.452,530.236,121.67z"/>
		<path fill="#F6C584" d="M529.009,152.354c0.405,0,0.822,0,1.228,0c-4.824,2.147-12.691,1.227-20.865,1.227
			c-5.866,0-18.14,2.038-20.864-1.227c-3.731-4.48,2.822-23.356,0-30.684c-10.236-0.81-23.713,1.62-31.911-1.228
			c0.405,0,0.822,0,1.228,0c10.641,0,21.27,0,31.91,0c0,5.4,0,9.979,0,15.956c0,3.608-1.73,12.654,0,14.728
			C494.287,156.601,520.258,149.568,529.009,152.354z"/>
		<path fill="#F1A230" d="M529.009,48.03c2.848,8.199,0.417,21.675,1.228,31.911C527.389,71.742,529.818,58.266,529.009,48.03z"/>
		<path fill="#F6C584" d="M521.645,111.852c-0.81,10.236,1.62,23.712-1.228,31.911C521.228,133.526,518.797,120.05,521.645,111.852z
			"/>
		<path fill="#FBE6C8" d="M520.417,56.621c0,0.405,0,0.822,0,1.228c-7.363,0-14.728,0-22.092,0
			C503.259,55.013,513.446,57.419,520.417,56.621z"/>
		<path fill="#F1A230" d="M498.325,143.762c2.663,2.664,16.938-2,22.092,0c-4.934,2.835-15.12,0.43-22.092,1.228
			c-2.737-8.714-0.503-22.411-1.228-33.138c2.295,3.572,1.19,9.708,1.228,15.956C498.35,132.618,496.963,142.4,498.325,143.762z"/>
		<path fill="#F1A230" d="M498.325,57.849c0,10.224,0,20.459,0,30.684c-0.405,0-0.822,0-1.228,0
			C497.908,78.701,495.478,65.63,498.325,57.849z"/>
		<path fill="#F6C584" d="M497.098,88.532c0.405,0,0.822,0,1.228,0c-8.198,2.847-21.675,0.417-31.911,1.227
			C474.195,86.912,487.267,89.342,497.098,88.532z"/>
		<path fill="#F6C584" d="M489.733,48.03c-0.81,10.236,1.62,23.712-1.227,31.911C489.316,69.705,486.887,56.229,489.733,48.03z"/>
		<path fill="#8895B6" d="M479.915,518.102c0,5.731,0,11.451,0,17.183c-0.798,5.757,1.607,14.691-1.228,18.41
			c0-23.725,0-47.461,0-71.186c0.405,0,0.822,0,1.228,0c0,2.859,0,5.731,0,8.591C479.915,500.097,479.915,509.105,479.915,518.102z"
			/>
		<path fill="#8896B8" d="M479.915,445.688c0,12.273,0,24.547,0,36.82c-0.405,0-0.822,0-1.228,0c0-67.504,0-135.008,0-202.511
			c0.405,0,0.822,0,1.228,0c0,3.682,0,7.364,0,11.046c0,11.451,0,22.915,0,34.366c0,18.41,0,36.82,0,55.23
			c0,8.996,0,18.005,0,27.001C479.915,420.319,479.915,433.01,479.915,445.688z"/>
		<path fill="#8998BA" d="M479.915,255.451c0,8.186,0,16.36,0,24.547c-0.405,0-0.822,0-1.228,0c0-30.279,0-60.545,0-90.824
			c1.424-0.196,2.185,0.27,2.455,1.228c-1.437,0.208-1.338,1.939-1.228,3.682C479.915,214.543,479.915,234.991,479.915,255.451z"/>
		<path fill="#FFFFFF" d="M478.688,553.694c0,0.405,0,0.822,0,1.228c-3.276,12.679-10.481,21.43-24.547,23.319
			c-76.095,0-152.19,0-228.285,0c-13.955-2.001-21.43-10.481-24.547-23.319c0-0.405,0-0.822,0-1.228c0-139.095,0-278.189,0-417.296
			c0.7-6.259,3.608-10.31,6.137-14.728c5.155-4.259,9.917-8.898,18.41-9.819c63.417,0,126.821,0,190.238,0
			c2.209,2.7,1.067,8.751,2.454,12.273c-63,0.822-129.276-1.632-190.238,1.228c-7.585,1.816-12.617,6.21-13.501,14.728
			c-2.859,44.184-0.405,93.683-1.227,139.917c0,67.503,0,135.007,0,202.511c0.822,22.914-1.632,49.094,1.227,69.958
			c-0.196,1.424,0.27,2.185,1.228,2.455c1.399,5.154,5.548,7.548,9.819,9.818c73.235,2.05,155.05,2.05,228.285,0
			c0.982-0.65,1.988-1.276,3.683-1.228c1.153-3.755,5.977-3.841,6.137-8.591c1.436-0.196,1.03-2.233,1.227-3.682
			c2.86-21.688,0.405-48.689,1.228-72.414c0-55.229,0-110.46,0-165.69c0-11.046,0-22.092,0-33.138c0-31.911,0-63.822,0-95.733
			c4.677,1.043,7.806,3.645,12.273,4.909c0,30.279,0,60.545,0,90.824c0,67.503,0,135.007,0,202.511
			C478.688,506.233,478.688,529.97,478.688,553.694z"/>
		<path fill="#8998BA" d="M465.187,183.038c0.749,0.073,1.448,0.184,1.228,1.227c0,31.911,0,63.822,0,95.733
			c-0.405,0-0.822,0-1.228,0c0-8.187,0-16.361,0-24.547c0-20.46,0-40.907,0-61.367c0-2.455,0-4.91,0-7.364
			C465.187,185.492,465.187,184.265,465.187,183.038z"/>
		<path fill="#C3C7DA" d="M466.414,313.136c0,55.23,0,110.461,0,165.69c-0.405,0-0.822,0-1.228,0c0-11.046,0-22.092,0-33.138
			c0-12.679,0-25.369,0-38.048c0-8.996,0-18.005,0-27.001c0-18.41,0-36.82,0-55.23c0-4.087,0-8.187,0-12.273
			C465.592,313.136,466.009,313.136,466.414,313.136z"/>
		<path fill="#8896B8" d="M466.414,279.998c0,11.046,0,22.092,0,33.138c-0.405,0-0.822,0-1.228,0c0-7.364,0-14.729,0-22.092
			c0-3.682,0-7.364,0-11.046C465.592,279.998,466.009,279.998,466.414,279.998z"/>
		<path fill="#F1A230" d="M466.414,89.759c0,7.364,0,14.728,0,22.092C464.377,107.311,464.377,94.301,466.414,89.759z"/>
		<path fill="#8895B6" d="M465.187,478.826c0.405,0,0.822,0,1.228,0c-0.822,23.725,1.633,50.727-1.228,72.414
			c0-5.314,0-10.642,0-15.956c0-5.731,0-11.451,0-17.183c0-8.996,0-18.005,0-27.002c0-2.859,0-5.731,0-8.591
			C465.187,481.281,465.187,480.054,465.187,478.826z"/>
		<path fill="#004B7A" d="M465.187,535.284c0,5.314,0,10.642,0,15.956c-0.196,1.448,0.209,3.485-1.227,3.682
			c-82.638,0-165.287,0-247.923,0c-0.958-0.271-1.424-1.031-1.228-2.455c0-5.731,0-11.451,0-17.183
			C298.269,535.284,381.728,535.284,465.187,535.284z M357.181,553.694c0-4.909,0-9.818,0-14.728c-11.451,0-22.915,0-34.366,0
			c0,4.909,0,9.818,0,14.728C334.267,553.694,345.73,553.694,357.181,553.694z"/>
		<path fill="#004B7B" d="M465.187,518.102c0,5.731,0,11.451,0,17.183c-83.459,0-166.918,0-250.377,0c0-5.731,0-11.451,0-17.183
			c6.137,0,12.273,0,18.41,0c0.749,2.934-1.546,8.898,1.228,9.818c52.297,2.197,127.005,1.228,186.556,1.228
			c7.646,0,26.143,0.933,27.001,0c1.902-2.074-1.35-6.542,0-11.046C453.736,518.102,459.455,518.102,465.187,518.102z"/>
		<path fill="#004C7B" d="M465.187,491.1c0,8.997,0,18.006,0,27.002c-5.731,0-11.45,0-17.183,0c0-8.996,0-18.005,0-27.002
			C453.736,491.1,459.455,491.1,465.187,491.1z"/>
		<path fill="#004B7C" d="M465.187,482.509c0,2.859,0,5.731,0,8.591c-5.731,0-11.45,0-17.183,0c0-2.859,0-5.731,0-8.591
			C453.736,482.509,459.455,482.509,465.187,482.509z"/>
		<path fill="#004C7C" d="M465.187,478.826c0,1.228,0,2.455,0,3.683c-5.731,0-11.45,0-17.183,0c0-12.273,0-24.547,0-36.82
			c5.732,0,11.451,0,17.183,0C465.187,456.734,465.187,467.78,465.187,478.826z"/>
		<path fill="#004C7D" d="M465.187,407.641c0,12.679,0,25.369,0,38.048c-5.731,0-11.45,0-17.183,0c0-12.679,0-25.369,0-38.048
			C453.736,407.641,459.455,407.641,465.187,407.641z"/>
		<path fill="#004D7D" d="M465.187,380.64c0,8.996,0,18.005,0,27.001c-5.731,0-11.45,0-17.183,0c0-8.996,0-18.005,0-27.001
			C453.736,380.64,459.455,380.64,465.187,380.64z"/>
		<path fill="#004D7E" d="M465.187,325.409c0,18.41,0,36.82,0,55.23c-5.731,0-11.45,0-17.183,0c0-18.41,0-36.82,0-55.23
			C453.736,325.409,459.455,325.409,465.187,325.409z"/>
		<path fill="#004E7E" d="M465.187,313.136c0,4.087,0,8.187,0,12.273c-5.731,0-11.45,0-17.183,0c0-11.451,0-22.915,0-34.366
			c5.732,0,11.451,0,17.183,0C465.187,298.407,465.187,305.771,465.187,313.136z"/>
		<path fill="#014E7F" d="M465.187,279.998c0,3.682,0,7.364,0,11.046c-5.731,0-11.45,0-17.183,0c0-3.682,0-7.364,0-11.046
			C453.736,279.998,459.455,279.998,465.187,279.998z"/>
		<path fill="#014F7F" d="M465.187,255.451c0,8.186,0,16.36,0,24.547c-5.731,0-11.45,0-17.183,0c0-6.542,0-13.096,0-19.638
			c0-1.632,0-3.277,0-4.909C453.736,255.451,459.455,255.451,465.187,255.451z"/>
		<path fill="#014F80" d="M465.187,194.083c0,20.46,0,40.907,0,61.367c-5.731,0-11.45,0-17.183,0c0-20.46,0-40.907,0-61.367
			C453.736,194.083,459.455,194.083,465.187,194.083z"/>
		<path fill="#015080" d="M465.187,186.719c0,2.455,0,4.91,0,7.364c-5.731,0-11.45,0-17.183,0c0-2.455,0-4.91,0-7.364
			C453.736,186.719,459.455,186.719,465.187,186.719z"/>
		<path fill="#015081" d="M465.187,183.038c0,1.227,0,2.455,0,3.682c-5.731,0-11.45,0-17.183,0c0-3.682,0-7.364,0-11.046
			C454.877,172.458,458.51,182.068,465.187,183.038z"/>
		<path fill="#004A7A" d="M216.037,554.922c82.637,0,165.286,0,247.923,0c-0.16,4.75-4.983,4.836-6.137,8.591
			c-1.694-0.049-2.7,0.577-3.683,1.228c-76.095,0-152.19,0-228.285,0C221.584,562.47,217.436,560.076,216.037,554.922z"/>
		<path fill="#F1A230" d="M457.823,79.941c0,13.5,0,27.001,0,40.502c-0.405,0-0.822,0-1.228,0
			C457.405,107.347,454.963,90.999,457.823,79.941z"/>
		<path fill="#4B6C97" d="M225.855,564.74c76.095,0,152.19,0,228.285,0C380.905,566.79,299.091,566.79,225.855,564.74z"/>
		<path fill="#C3C7DA" d="M225.855,578.241c76.095,0,152.19,0,228.285,0C380.905,580.291,299.091,580.291,225.855,578.241z"/>
		<path fill="#0070A3" d="M448.004,518.102c-1.35,4.504,1.902,8.972,0,11.046c-0.858,0.933-19.354,0-27.001,0
			c-59.551,0-134.259,0.97-186.556-1.228c70.363,0,140.739,0,211.103,0c2.859-86.736,0.404-178.786,1.227-267.56
			c0.405,0,0.823,0,1.228,0c0,6.542,0,13.096,0,19.638c0,3.682,0,7.364,0,11.046c0,11.451,0,22.915,0,34.366
			c0,18.41,0,36.82,0,55.23c0,8.996,0,18.005,0,27.001c0,12.679,0,25.369,0,38.048c0,12.273,0,24.547,0,36.82
			c0,2.859,0,5.731,0,8.591C448.004,500.097,448.004,509.105,448.004,518.102z"/>
		<path fill="#006799" d="M448.004,255.451c0,1.632,0,3.277,0,4.909c-0.404,0-0.822,0-1.228,0c0-27.824,0-55.635,0-83.459
			c0.074-0.749,0.185-1.449,1.228-1.228c0,3.682,0,7.364,0,11.046c0,2.455,0,4.91,0,7.364
			C448.004,214.543,448.004,234.991,448.004,255.451z"/>
		<path fill="#007BB0" d="M446.776,176.901c0,27.824,0,55.635,0,83.459c-0.822,88.774,1.633,180.824-1.227,267.56
			c-70.364,0-140.74,0-211.103,0c0-121.911,0-243.835,0-365.748c63.417,0,126.821,0,190.238,0
			c-2.258,9.61-6.382,17.342-9.818,25.774c2.454,1.313,4.517-1.362,7.364-2.455C429.422,182.73,438.774,179.196,446.776,176.901z
			 M432.049,367.139c-0.957-4.774-1.411-10.052-4.909-12.273C428.612,359.124,429.066,364.401,432.049,367.139z M423.457,396.595
			c5.769-8.456,7.512-36.734,0-42.957c-0.454-3.646-2.123-6.051-4.909-7.364c-4.517-7.352-14.273-9.463-24.547-11.046
			c0.221-2.676-1.006-3.902-3.682-3.682c-3.351-0.896-2.467,2.442-4.909,2.454c0.981-4.663-5.806-1.559-8.592-2.454
			c-2.467,3.67-0.699,11.573-1.228,17.183c1.068,5.621-1.62,13.856,0,15.955c0.773,3.731-1.57,10.567,1.228,12.273
			c1.596,3.044-2.737,5.953,0,6.137c0.319,5.413,1.964,9.5,1.228,15.956c-0.344,3.215,0.454,5.277,3.682,4.909
			c0.884,3.756-1.252,4.468-1.228,7.364c4.137,4.394,18.178,3.351,19.638-2.455c-0.368,3.24,2.565,3.167,4.909,3.682
			c2.234-2.663,7.021-3.313,9.819-6.137c1.116-1.116,0.319-3.411,1.228-4.909c0.27-0.454,2.049-0.798,2.454-1.228
			c0.564-0.613,0.614-3.24,1.228-3.682C420.34,396.189,423.089,397.147,423.457,396.595z M395.229,259.132
			c1.521-5.02,4.578-8.505,6.137-13.5c-2.848-1.375-3.289,0.258-6.137-2.455c-0.062,1.571-1.571,1.693-1.228,3.682
			c-0.405,0-0.822,0-1.228,0c1.351-7.486-5.326-6.946-9.818-8.591c-1.129,9.5-5.376,15.906-8.592,23.32
			c-3.08-1.019-3.878-4.296-6.137-6.137c-3.927-6.296-7.965-12.482-14.728-15.956c-3.646,2.872-9.549,2.381-12.273,8.591
			c7.315,14.777,21.772,22.411,23.319,42.957c0,8.187,0,16.361,0,24.546c0,1.228,0,2.455,0,3.683c7.904,0.233,15.022,4.369,20.865,0
			c0-2.05,0-4.087,0-6.137c0-4.087,0-8.187,0-12.273c-0.773-3.731,1.57-10.567-1.228-12.273
			c-0.626-12.899,5.658-18.889,7.364-29.457C393.302,259.611,393.621,260.605,395.229,259.132z M368.227,396.595
			c3.044-9.635-0.208-20.288-3.682-24.547c-0.749-0.921-1.571-2.811-2.455-3.682c-3.019-2.995-7.266-2.896-9.818-4.91
			c-9.696-7.646-2.148-17.906,7.364-20.864c-0.417-4.087-5.008-3.989-4.91-8.592c-2.958-0.503-2.663,2.246-6.137,1.228
			c0.295-1.755,2.025-2.074,2.455-3.682c-4.75-1.068-4.37,2.994-7.364,3.682c0.294-1.755,2.025-2.074,2.455-3.682
			c-7.425,3.19-11.206,9.487-13.5,14.728c-3.854,4.849-6.407,19.429,1.227,22.093c0.27-0.958,0.037-2.418,1.228-2.455
			c2.246,3.891,7.99,4.283,12.273,6.137c-0.062,1.571-1.571,1.693-1.228,3.682c-0.957,0.271-2.418,0.037-2.455,1.228
			c3.314,0.368,2.197,5.167,4.909,6.137c1.498,10.69-4.799,13.759-13.5,11.046c-3.608,2.59-3.608,14.594,0,17.184
			c-2.295-0.062-2.602,0.944-1.228,2.454c0.822,0,1.632,0,2.455,0c4.688,4.137,21.54-2.271,17.183-4.909
			c7.106-3.289,9.77-3.67,12.273-7.364C366.104,401.025,368.215,396.644,368.227,396.595z M326.498,322.954
			c7.683-0.086,9.205-6.345,17.183-6.137c-2.258-8.223-6.799-16.409-9.819-25.774c-1.424-4.418-1.829-10.027-3.682-14.728
			c-0.147-0.356-2.197-0.786-2.455-1.228c-0.491-0.822-1.055-3.301-1.227-3.682c-2.356-5.339-2.136-7.744-1.228-12.273
			c-4.762-5.879-4.431-16.851-9.819-22.092c-0.785,1.19-5.891,1.239-11.046,1.227c0.847,4.087-2.541,1.976-3.682,1.228
			c0.773,5.375,1.927,7.167-2.455,3.682c-0.319,3.596,2.774,3.768,2.455,7.364c-4.087,9.009-4.197,21.982-8.591,30.684
			c-1.878-4.664-4.946-8.149-6.137-13.5c-0.454-3.302,1.129-14.937-1.228-12.273c-0.024,3.252,0.675,7.229-2.455,7.364
			c-0.074-6.615,1.915-11.181,2.455-17.183c-5.572-1.375-11.966-1.939-17.183-3.682c-1.768,7.241-2.541,15.452-2.455,24.547
			c-2.664,8.248-0.442,14.618,1.227,22.092c-2.405,6.186-3.265,13.918-3.682,22.092c-1.657,0.209-1.596-7.106-3.682-2.454
			c-0.38,3.399,0.196,17.919,1.227,8.591c0.405,0,0.823,0,1.228,0c0,1.633,0,3.277,0,4.909c6.039,2.332,14.9,0.528,18.41,2.455
			c1.228-4.136,1.608-15.219,3.682-22.092c5.204,8.701,7.99,19.821,14.728,27.001c4.161-3.412,7.033-5.462,9.819-8.591
			c1.399-1.571,4.553-2.259,3.682-4.91c0-4.099-3.989-4.185-3.682-8.591c0.626-6.738,1.031-13.697,4.909-17.183
			C317.697,300.653,321.306,312.596,326.498,322.954z M317.906,405.187c2.676-1.485,8.236-6.419,4.91-9.819
			c-0.062,1.571-1.571,1.694-1.228,3.683c-3.351-1.13,1.718-3.842,0-7.364c2.038-1.326,2.038-10.948,0-12.273
			c0.565-7.929-3.559-11.169-6.137-15.956c0-1.227-0.994-1.46-1.227-2.454c3.142-2.442-3.118-5.806-4.91-7.364
			c-6.615-5.474-14.654,1.142-13.5,7.364c0.712,3.817,5.572,2.835,7.364,7.364c0.81,1.767,3.51,7.781,4.91,4.909
			c4.099,2.037,6.726,10.702,3.682,15.955c-1.804,4.75-6.038,7.045-8.591,11.046c-3.228,1.719-4.75,2.896-8.591,2.455
			c-4.234-0.491-7.793-5.412-8.591-8.592c4.308,1.08,2.136-4.05,0-3.682c-0.196,1.448,0.208,3.485-1.228,3.682
			c-1.117-4.394-3.338-8.051-3.682-12.273c-1.117-13.562,7.057-24.448,14.728-30.683c1.608-1.252,4.529-1.203,6.137-2.455
			c-0.884-4.848-2.504-8.96-6.137-11.046c-12.359,2.368-17.748,11.709-24.547,19.638c0-0.823,0-1.633,0-2.455
			c1.473-2.688,7.511-7.131,4.909-9.818c-2.319,2.994-4.688,5.952-6.137,9.818c-2,5.376-4.651,10.076-4.909,17.183
			c-2.025,0.933-2.025,10.113,0,11.046c-0.344,10.69,3.498,17.318,7.364,22.093c4.222,5.216,4.308,3.719,8.592,6.137
			c1.436,0.81,2.541,3.228,3.682,3.682c3.817,1.51,6.444,0.245,8.592,1.228C301.055,419.779,314.494,413.115,317.906,405.187z"/>
		<path fill="#87B8D9" d="M427.14,354.865c3.498,2.222,3.952,7.499,4.909,12.273C429.066,364.401,428.612,359.124,427.14,354.865z"
			/>
		<path fill="#015181" d="M429.594,149.899c-8.996,0-18.005,0-27.001,0c2.688-3.669,3.915-3.927,3.682-7.364
			c-0.602-8.911-22.35-8.125-27.001-2.455c-0.798,4.479,0.822,6.542,2.454,8.591c-2.099,2.811-9.364,0.454-13.501,1.227
			c0.258-1.375,1.362-1.915,2.455-2.455c0-2.859,0-5.731,0-8.591c-5.879-4.136-15.207-2.455-23.319-2.455
			c-17.588,0-35.384-0.086-51.548,0c-7.831,0.037-17.22-1.89-22.092,3.682c-1.252,5.756,2.025,6.983,3.682,9.818
			c-20.865,0-41.729,0-62.595,0c0-3.277,0-6.542,0-9.818c0.884-8.518,5.916-12.912,13.501-14.728c63.417,0,126.821,0,190.238,0
			C422.169,133.588,424.685,142.94,429.594,149.899z"/>
		<path fill="#015081" d="M402.593,149.899c8.996,0,18.005,0,27.001,0c-0.062,4.848-2.7,7.119-3.682,11.046
			c-63.417,0.822-130.098-1.632-191.465,1.227c-2.848,5.744-0.417,16.766-1.228,24.547c-6.137,0-12.273,0-18.41,0
			c0-12.273,0-24.547,0-36.82c20.865,0,41.73,0,62.595,0c30.278,0,60.544,0,90.823,0c4.137-0.773,11.402,1.583,13.501-1.227
			C386.515,151.249,395.842,149.286,402.593,149.899z"/>
		<path fill="#006799" d="M425.912,160.945c0.221,1.043-0.479,1.154-1.228,1.227c-63.417,0-126.821,0-190.238,0
			C295.814,159.313,362.495,161.768,425.912,160.945z"/>
		<path fill="#FFFFFF" d="M423.457,353.638c7.512,6.223,5.769,34.501,0,42.957c-0.368,0.553-3.117-0.405-3.682,0
			c-0.613,0.441-0.663,3.068-1.228,3.682c-0.405,0.43-2.185,0.773-2.454,1.228c-0.908,1.498-0.111,3.793-1.228,4.909
			c-2.799,2.823-7.585,3.474-9.819,6.137c-2.344-0.515-5.277-0.441-4.909-3.682c-1.46,5.806-15.501,6.849-19.638,2.455
			c-0.024-2.896,2.111-3.608,1.228-7.364c-0.748-2.934,1.534-8.898-1.228-9.819c0-3.276,0-6.541,0-9.818c0-2.859,0-5.731,0-8.592
			c-3.129,0.136-2.43,4.112-2.454,7.364c-0.405,0-0.822,0-1.228,0c-2.737-0.184,1.596-3.093,0-6.137c0-4.909,0-9.818,0-14.728
			c-0.773-4.137,1.583-11.402-1.228-13.501c0.528-5.609-1.239-13.513,1.228-17.183c2.786,0.896,9.573-2.209,8.592,2.454
			c2.442-0.012,1.559-3.351,4.909-2.454c2.676-0.221,3.902,1.006,3.682,3.682c10.273,1.583,20.03,3.694,24.547,11.046
			C412.816,347.256,421.433,352.509,423.457,353.638z M409.957,378.185c2.761-13.563-3.462-21.282-14.729-23.319
			c0.712,18.226,2.001,28.29,4.909,44.185c1.473-3.032,6.542-5.843,3.683-6.137c-0.147-0.013-2.124,3.964-2.455,1.227
			c2.197-2.307,3.313-5.683,6.137-7.363c0.196,1.448-0.209,3.485,1.228,3.682c1.534-4.812,0.933-3.805-1.228-4.909
			C408.569,383.512,409.503,380.443,409.957,378.185z M389.092,373.275c-0.245-6.296,1.093-14.176-2.455-17.183
			c-0.908,2.859,0.725,7.352,1.228,11.046C388.171,369.409,386.526,375.239,389.092,373.275z M379.273,359.774
			c0.172-3.891-0.136-8.309,0-11.046c-0.062-1.289-1.571-0.97-1.228,1.228c0,5.314,0,10.641,0,15.955
			C380.23,368.538,379.15,362.695,379.273,359.774z"/>
		<path fill="#D4E4F2" d="M418.548,346.273c2.786,1.313,4.455,3.719,4.909,7.364C421.433,352.509,412.816,347.256,418.548,346.273z"
			/>
		<path fill="#8998BA" d="M418.548,124.125c0,0.405,0,0.822,0,1.228c-63.417,0-126.821,0-190.238,0
			C289.272,122.493,355.548,124.947,418.548,124.125z"/>
		<path fill="#8998BA" d="M416.094,110.624c0,0.405,0,0.823,0,1.228c-63.417,0-126.822,0-190.238,0
			C286.817,108.992,353.094,111.447,416.094,110.624z"/>
		<path fill="#767984" d="M416.094,92.214c0,5.732,0,11.451,0,17.183C414.056,106.476,414.056,95.135,416.094,92.214z"/>
		<path fill="#007BB0" d="M395.229,354.865c11.267,2.037,17.489,9.757,14.729,23.319c-0.454,2.259-1.388,5.327-2.455,7.364
			c2.16,1.104,2.762,0.098,1.228,4.909c-1.437-0.196-1.031-2.233-1.228-3.682c-2.823,1.681-3.939,5.057-6.137,7.363
			c0.331,2.737,2.308-1.239,2.455-1.227c2.859,0.294-2.21,3.104-3.683,6.137C397.229,383.155,395.94,373.091,395.229,354.865z"/>
		<path fill="#FFFFFF" d="M406.274,142.535c0.233,3.437-0.994,3.694-3.682,7.364c-6.751-0.613-16.078,1.35-20.865-1.227
			c-1.632-2.05-3.252-4.112-2.454-8.591C383.925,134.41,405.673,133.625,406.274,142.535z"/>
		<path fill="#FFFFFF" d="M401.365,245.632c-1.559,4.995-4.615,8.481-6.137,13.5c-1.607,1.473-1.927,0.479-3.682,0
			c-1.706,10.567-7.99,16.557-7.364,29.457c0,4.087,0,8.186,0,12.273c0.773,3.73-1.571,10.567,1.228,12.273c0,2.05,0,4.087,0,6.137
			c-5.843,4.369-12.961,0.233-20.865,0c0-1.228,0-2.455,0-3.683c2.037-5.351,2.037-19.195,0-24.546
			c-1.547-20.546-16.004-28.18-23.319-42.957c2.725-6.21,8.628-5.719,12.273-8.591c6.763,3.473,10.801,9.659,14.728,15.956
			c0,0.405,0,0.822,0,1.227c-1.816-0.638-3.093-1.816-4.909-2.455c0.761,3.338,2.431,5.744,4.909,7.364
			c0.602,1.448,1.313,2.786,2.455,3.682c-0.577-5.277,3.302-1.571,3.682-3.682c3.216-7.414,7.463-13.82,8.592-23.32
			c4.492,1.645,11.169,1.105,9.818,8.591c-1.497,1.78-4.896,1.645-4.909,4.91c0.528,2.393,3.511-2.013,2.455,3.682
			c-2.05,2.859-3.203,6.615-3.683,11.046c3.143-2.185,2.75-7.879,4.91-11.046c0.208-3.474,2.246-5.118,2.454-8.592
			c-0.344-1.988,1.166-2.111,1.228-3.682C398.076,245.89,398.518,244.257,401.365,245.632z"/>
		<path fill="#87B8D9" d="M392.773,246.859c0.405,0,0.822,0,1.228,0c-0.208,3.474-2.246,5.118-2.454,8.592c-0.405,0-0.822,0-1.228,0
			c1.056-5.695-1.927-1.289-2.455-3.682C387.877,248.504,391.276,248.639,392.773,246.859z"/>
		<path fill="#AECDE5" d="M390.319,255.451c0.405,0,0.822,0,1.228,0c-2.16,3.167-1.768,8.861-4.91,11.046
			C387.116,262.066,388.27,258.31,390.319,255.451z"/>
		<path fill="#3298C5" d="M386.637,356.093c3.548,3.007,2.21,10.887,2.455,17.183c-2.565,1.964-0.921-3.866-1.228-6.137
			C387.361,363.444,385.729,358.952,386.637,356.093z"/>
		<path fill="#3298C5" d="M385.41,300.862c0,4.087,0,8.187,0,12.273c-2.799-1.706-0.454-8.543-1.228-12.273
			C384.588,300.862,385.005,300.862,385.41,300.862z"/>
		<path fill="#87B8D9" d="M385.41,300.862c-0.405,0-0.822,0-1.228,0c0-4.087,0-8.187,0-12.273
			C386.98,290.295,384.637,297.131,385.41,300.862z"/>
		<path fill="#87B8D9" d="M381.728,403.959c-3.228,0.368-4.025-1.694-3.682-4.909c0.405,0,0.822,0,1.228,0
			c1.411,3.977,1.387-3.302,1.227-4.91C383.262,395.061,380.979,401.025,381.728,403.959z"/>
		<path fill="#007BB0" d="M380.5,394.14c0.16,1.608,0.185,8.887-1.227,4.91c0-4.91,0-9.819,0-14.729c0.404,0,0.822,0,1.227,0
			C380.5,387.599,380.5,390.863,380.5,394.14z"/>
		<path fill="#4D9FC9" d="M380.5,375.729c0,2.86,0,5.732,0,8.592c-0.404,0-0.822,0-1.227,0c-0.749-0.073-1.448-0.184-1.228-1.228
			C378.07,379.842,377.371,375.865,380.5,375.729z"/>
		<path fill="#007BB0" d="M379.273,348.729c-0.136,2.737,0.172,7.155,0,11.046c-0.123,2.921,0.957,8.764-1.228,6.137
			c0-5.314,0-10.641,0-15.955C377.702,347.759,379.212,347.439,379.273,348.729z"/>
		<path fill="#C6DBEC" d="M379.273,384.321c0,4.909,0,9.818,0,14.729c-0.405,0-0.822,0-1.228,0
			c0.736-6.456-0.908-10.543-1.228-15.956c0.405,0,0.822,0,1.228,0C377.825,384.138,378.524,384.248,379.273,384.321z"/>
		<path fill="#87B8D9" d="M376.818,362.229c0,4.909,0,9.818,0,14.728c-2.798-1.706-0.454-8.542-1.228-12.273
			C375.861,363.727,375.628,362.266,376.818,362.229z"/>
		<path fill="#6AAAD0" d="M375.591,348.729c2.811,2.099,0.454,9.364,1.228,13.501c-1.19,0.036-0.957,1.497-1.228,2.454
			C373.971,362.585,376.659,354.35,375.591,348.729z"/>
		<path fill="#D4E4F2" d="M374.363,261.587c-0.38,2.111-4.259-1.596-3.682,3.682c-1.142-0.896-1.854-2.233-2.455-3.682
			c0-1.632,0-3.277,0-4.91c0-0.405,0-0.822,0-1.227C370.485,257.292,371.283,260.568,374.363,261.587z"/>
		<path fill="#FFFFFF" d="M370.682,138.853c0,2.86,0,5.732,0,8.591c-1.093,0.54-2.197,1.08-2.455,2.455c-30.278,0-60.544,0-90.823,0
			c-1.657-2.835-4.934-4.063-3.682-9.818c4.873-5.572,14.262-3.646,22.092-3.682c16.164-0.086,33.96,0,51.548,0
			C355.475,136.398,364.803,134.717,370.682,138.853z"/>
		<path fill="#FFFFFF" d="M364.545,372.048c3.474,4.259,6.726,14.912,3.682,24.547c-0.012,0.049-2.123,4.431-2.454,4.909
			c-2.504,3.694-5.167,4.075-12.273,7.364c-2.995,2.737-8.763,2.688-14.728,2.455c-3.449,0.012,2.921,3.351-2.455,2.454
			c-0.822,0-1.632,0-2.455,0c-1.375-1.51-1.068-2.516,1.228-2.454c-3.608-2.59-3.608-14.594,0-17.184
			c8.702,2.713,14.998-0.355,13.5-11.046c-0.221-1.043,0.479-1.153,1.228-1.228c1.804,6.493,1.804-8.604-3.682-6.137
			c-0.344-1.988,1.166-2.11,1.228-3.682c-4.284-1.854-10.027-2.246-12.273-6.137c-1.19,0.037-0.958,1.497-1.228,2.455
			c-7.634-2.664-5.081-17.244-1.227-22.093c4.197-3.166,7.879-6.849,11.046-11.046c2.995-0.688,2.614-4.75,7.364-3.682
			c-0.43,1.607-2.16,1.927-2.455,3.682c3.474,1.019,3.179-1.73,6.137-1.228c-0.098,4.603,4.492,4.505,4.91,8.592
			c-9.512,2.958-17.06,13.219-7.364,20.864c2.553,2.014,6.799,1.915,9.818,4.91C362.974,369.237,363.796,371.127,364.545,372.048z"
			/>
		<path fill="#007BB0" d="M368.227,256.678c0,1.632,0,3.277,0,4.91c-2.479-1.62-4.148-4.026-4.909-7.364
			C365.134,254.861,366.41,256.04,368.227,256.678z"/>
		<path fill="#87B8D9" d="M364.545,291.043c2.037,5.351,2.037,19.196,0,24.546C364.545,307.404,364.545,299.23,364.545,291.043z"/>
		<path fill="#FFFFFF" d="M357.181,538.967c0,4.909,0,9.818,0,14.728c-11.451,0-22.915,0-34.366,0c0-4.909,0-9.818,0-14.728
			C334.267,538.967,345.73,538.967,357.181,538.967z"/>
		<path fill="#C6DBEC" d="M353.499,408.868c4.357,2.639-12.495,9.046-17.183,4.909c5.376,0.896-0.994-2.442,2.455-2.454
			C344.736,411.556,350.504,411.605,353.499,408.868z"/>
		<path fill="#0284B7" d="M346.135,375.729c5.486-2.467,5.486,12.63,3.682,6.137C349.093,379.313,347.239,377.902,346.135,375.729z"
			/>
		<path fill="#6AAAD0" d="M349.817,381.866c-0.749,0.074-1.448,0.185-1.228,1.228c-2.712-0.97-1.595-5.769-4.909-6.137
			c0.037-1.19,1.498-0.957,2.455-1.228C347.239,377.902,349.093,379.313,349.817,381.866z"/>
		<path fill="#6AAAD0" d="M346.135,331.546c-0.43,1.607-2.16,1.927-2.455,3.682c-3.167,4.197-6.849,7.88-11.046,11.046
			C334.929,341.033,338.709,334.736,346.135,331.546z"/>
		<path fill="#FFFFFF" d="M343.68,316.817c-7.978-0.208-9.5,6.051-17.183,6.137c-5.192-10.358-8.8-22.301-13.501-33.138
			c-3.878,3.486-4.283,10.445-4.909,17.183c-0.307,4.406,3.682,4.492,3.682,8.591c0.872,2.651-2.283,3.339-3.682,4.91
			c-2.786,3.129-5.658,5.179-9.819,8.591c-6.738-7.18-9.524-18.3-14.728-27.001c-2.074,6.873-2.455,17.956-3.682,22.092
			c-3.51-1.927-12.372-0.123-18.41-2.455c0-1.632,0-3.276,0-4.909c-0.503-2.958,2.246-2.663,1.228-6.137
			c0.417-8.174,1.276-15.906,3.682-22.092c2.909-6.284,2.86-15.698,1.228-23.32c-1.829-0.049-1.78,7.291-2.455,1.228
			c-0.086-9.095,0.687-17.306,2.455-24.547c5.216,1.743,11.611,2.308,17.183,3.682c-0.54,6.001-2.528,10.567-2.455,17.183
			c2.086,0.773,2.025,3.707,3.682,4.91c1.19,5.351,4.259,8.836,6.137,13.5c4.394-8.702,4.504-21.675,8.591-30.684
			c0.319-3.596-2.774-3.768-2.455-7.364c4.381,3.485,3.228,1.693,2.455-3.682c1.142,0.749,4.529,2.86,3.682-1.228
			c5.155,0.012,10.261-0.037,11.046-1.227c5.388,5.241,5.057,16.213,9.819,22.092c-0.908,4.529-1.129,6.935,1.228,12.273
			c0.172,0.381,0.736,2.86,1.227,3.682c0.258,0.442,2.308,0.872,2.455,1.228c1.854,4.701,2.258,10.31,3.682,14.728
			C336.881,300.408,341.422,308.595,343.68,316.817z M305.633,260.36c0.466-4.971-3.351-5.646-4.91-8.591
			c-1.412,3.866,1.927,2.982,2.455,4.909c-3.301,1.448,0,6.395,0,8.591c-1.915-0.098-0.847,3.572,0,1.228
			C305.301,265.748,303.08,260.679,305.633,260.36z"/>
		<path fill="#0284B7" d="M322.815,395.367c3.326,3.4-2.234,8.334-4.91,9.819c-0.405,0-0.822,0-1.227,0c0,0.687-0.994,1.387-1.228,0
			c1.228-3.928,4.713-5.585,6.137-6.137C321.244,397.062,322.754,396.938,322.815,395.367z"/>
		<path fill="#87B8D9" d="M321.588,379.412c2.038,1.325,2.038,10.947,0,12.273C322.14,387.021,318.409,382.946,321.588,379.412z"/>
		<path fill="#FFFFFF" d="M321.588,391.686c1.718,3.522-3.351,6.234,0,7.364c-1.424,0.552-4.909,2.209-6.137,6.137
			c0.233,1.387,1.228,0.687,1.228,0c0.405,0,0.822,0,1.227,0c-3.412,7.929-16.851,14.593-24.546,11.046
			c-2.148-0.982-4.774,0.282-8.592-1.228c-1.141-0.454-2.246-2.872-3.682-3.682c-4.284-2.418-4.37-0.921-8.592-6.137
			c-3.866-4.774-7.708-11.402-7.364-22.093c0-1.228,0-2.454,0-3.682c1.436,0.196,1.031,2.233,1.227,3.682
			c2.565-1.854-0.638-8.284-1.227-11.046c0.258-7.106,2.909-11.807,4.909-17.183c0.405,0,0.822,0,1.228,0c0,0.822,0,1.632,0,2.455
			c6.799-7.929,12.188-17.27,24.547-19.638c3.633,2.086,5.253,6.198,6.137,11.046c-1.608,1.252-4.529,1.203-6.137,2.455
			c-7.671,6.234-15.845,17.121-14.728,30.683c0.343,4.223,2.565,7.88,3.682,12.273c1.436-0.196,1.031-2.233,1.228-3.682
			c2.136-0.368,4.308,4.762,0,3.682c0.798,3.18,4.357,8.101,8.591,8.592c3.842,0.441,5.364-0.736,8.591-2.455
			c1.632,3.118,8.027,0.773,6.137-3.682c2.602-0.981,4.787-5.057,2.455-7.364c3.044-5.253,0.417-13.918-3.682-15.955
			c-0.147-3.117-1.792-4.762-4.91-4.909c-1.792-4.529-6.652-3.547-7.364-7.364c-1.154-6.223,6.885-12.838,13.5-7.364
			c-1.043-0.221-1.153,0.479-1.227,1.228c-1.632,2.111,4.921,6.48,7.364,8.591c2.578,4.787,6.702,8.027,6.137,15.956
			C318.409,382.946,322.14,387.021,321.588,391.686z"/>
		<path fill="#F4F6F7" d="M309.314,353.638c1.792,1.559,8.051,4.922,4.91,7.364c-1.522-2.565-3.572-4.615-6.137-6.137
			C308.161,354.116,308.271,353.417,309.314,353.638z"/>
		<path fill="#4D9FC9" d="M314.224,361.002c0.233,0.994,1.227,1.228,1.227,2.454c-2.442-2.11-8.996-6.479-7.364-8.591
			C310.652,356.387,312.702,358.437,314.224,361.002z"/>
		<path fill="#AECDE5" d="M311.769,389.23c2.332,2.308,0.147,6.383-2.455,7.364c-0.405,0-0.822,0-1.227,0
			c-1.068,1.792-1.841,3.891-4.91,3.682C305.731,396.275,309.965,393.98,311.769,389.23z"/>
		<path fill="#0284B7" d="M309.314,396.595c1.89,4.455-4.504,6.8-6.137,3.682c3.068,0.209,3.842-1.89,4.91-3.682
			C308.492,396.595,308.91,396.595,309.314,396.595z"/>
		<path fill="#6AAAD0" d="M308.087,373.275c-1.399,2.872-4.1-3.143-4.91-4.909C306.295,368.514,307.94,370.158,308.087,373.275z"/>
		<path fill="#E3ECF5" d="M300.723,251.769c1.559,2.945,5.376,3.621,4.91,8.591c-2.553,0.319-0.332,5.388-2.455,6.137
			c-0.847,2.344-1.915-1.326,0-1.228c0-2.197-3.301-7.143,0-8.591C302.65,254.751,299.312,255.635,300.723,251.769z"/>
		<path fill="#98C1DE" d="M284.768,255.451c2.356-2.664,0.773,8.972,1.228,12.273c-1.657-1.203-1.596-4.136-3.682-4.91
			C285.443,262.68,284.743,258.703,284.768,255.451z"/>
		<path fill="#F4F6F7" d="M276.176,345.047c2.602,2.688-3.437,7.131-4.909,9.818c-0.405,0-0.822,0-1.228,0
			C271.488,350.999,273.857,348.041,276.176,345.047z"/>
		<path fill="#87B8D9" d="M267.585,265.269c1.632,7.622,1.682,17.036-1.228,23.32c-1.669-7.475-3.891-13.845-1.227-22.092
			C265.805,272.56,265.756,265.22,267.585,265.269z"/>
		<path fill="#AECDE5" d="M265.13,372.048c0.589,2.762,3.792,9.192,1.227,11.046c-0.196-1.448,0.209-3.485-1.227-3.682
			c0,1.228,0,2.454,0,3.682C263.105,382.161,263.105,372.98,265.13,372.048z"/>
		<path fill="#87B8D9" d="M262.676,310.681c1.019,3.474-1.73,3.179-1.228,6.137c-0.405,0-0.822,0-1.228,0
			c-0.724-2.54,1.522-8.063-1.227-8.591C261.08,303.574,261.019,310.89,262.676,310.681z"/>
		<path fill="#FFFFFF" d="M258.994,308.227c2.749,0.527,0.503,6.051,1.227,8.591C259.19,326.146,258.613,311.626,258.994,308.227z"
			/>
		<path fill="#00598A" d="M234.447,162.172c0,121.912,0,243.836,0,365.748c-2.774-0.92-0.479-6.885-1.228-9.818
			c0-8.996,0-18.005,0-27.002c0-2.859,0-5.731,0-8.591c0-12.273,0-24.547,0-36.82c0-12.679,0-25.369,0-38.048
			c0-8.996,0-18.005,0-27.001c0-18.41,0-36.82,0-55.23c0-11.451,0-22.915,0-34.366c0-3.682,0-7.364,0-11.046
			c0-8.187,0-16.361,0-24.547c0-20.46,0-40.907,0-61.367c0-2.455,0-4.91,0-7.364C234.029,178.938,231.599,167.917,234.447,162.172z"
			/>
		<path fill="#004C7B" d="M233.219,491.1c0,8.997,0,18.006,0,27.002c-6.137,0-12.273,0-18.41,0c0-8.996,0-18.005,0-27.002
			C220.946,491.1,227.083,491.1,233.219,491.1z"/>
		<path fill="#004B7C" d="M233.219,482.509c0,2.859,0,5.731,0,8.591c-6.137,0-12.273,0-18.41,0c0-2.859,0-5.731,0-8.591
			C220.946,482.509,227.083,482.509,233.219,482.509z"/>
		<path fill="#004C7C" d="M233.219,445.688c0,12.273,0,24.547,0,36.82c-6.137,0-12.273,0-18.41,0c0-12.273,0-24.547,0-36.82
			C220.946,445.688,227.083,445.688,233.219,445.688z"/>
		<path fill="#004C7D" d="M233.219,407.641c0,12.679,0,25.369,0,38.048c-6.137,0-12.273,0-18.41,0c0-12.679,0-25.369,0-38.048
			C220.946,407.641,227.083,407.641,233.219,407.641z"/>
		<path fill="#004D7D" d="M233.219,380.64c0,8.996,0,18.005,0,27.001c-6.137,0-12.273,0-18.41,0c0-8.996,0-18.005,0-27.001
			C220.946,380.64,227.083,380.64,233.219,380.64z"/>
		<path fill="#004D7E" d="M233.219,325.409c0,18.41,0,36.82,0,55.23c-6.137,0-12.273,0-18.41,0c0-18.41,0-36.82,0-55.23
			C220.946,325.409,227.083,325.409,233.219,325.409z"/>
		<path fill="#004E7E" d="M233.219,291.043c0,11.451,0,22.915,0,34.366c-6.137,0-12.273,0-18.41,0c0-11.451,0-22.915,0-34.366
			C220.946,291.043,227.083,291.043,233.219,291.043z"/>
		<path fill="#014E7F" d="M233.219,279.998c0,3.682,0,7.364,0,11.046c-6.137,0-12.273,0-18.41,0c0-3.682,0-7.364,0-11.046
			C220.946,279.998,227.083,279.998,233.219,279.998z"/>
		<path fill="#014F7F" d="M233.219,255.451c0,8.186,0,16.36,0,24.547c-6.137,0-12.273,0-18.41,0c0-8.187,0-16.361,0-24.547
			C220.946,255.451,227.083,255.451,233.219,255.451z"/>
		<path fill="#014F80" d="M233.219,194.083c0,20.46,0,40.907,0,61.367c-6.137,0-12.273,0-18.41,0c0-20.46,0-40.907,0-61.367
			C220.946,194.083,227.083,194.083,233.219,194.083z"/>
		<path fill="#015080" d="M233.219,186.719c0,2.455,0,4.91,0,7.364c-6.137,0-12.273,0-18.41,0c0-2.455,0-4.91,0-7.364
			C220.946,186.719,227.083,186.719,233.219,186.719z"/>
		<path fill="#8895B6" d="M214.809,535.284c0,5.731,0,11.451,0,17.183c-2.859-20.864-0.405-47.044-1.227-69.958
			c0.405,0,0.822,0,1.227,0c0,2.859,0,5.731,0,8.591c0,8.997,0,18.006,0,27.002C214.809,523.833,214.809,529.553,214.809,535.284z"
			/>
		<path fill="#8896B8" d="M214.809,445.688c0,12.273,0,24.547,0,36.82c-0.405,0-0.822,0-1.227,0c0-67.504,0-135.008,0-202.511
			c0.405,0,0.822,0,1.227,0c0,3.682,0,7.364,0,11.046c0,11.451,0,22.915,0,34.366c0,18.41,0,36.82,0,55.23
			c0,8.996,0,18.005,0,27.001C214.809,420.319,214.809,433.01,214.809,445.688z"/>
		<path fill="#8998BA" d="M214.809,255.451c0,8.186,0,16.36,0,24.547c-0.405,0-0.822,0-1.227,0
			c0.822-46.234-1.632-95.733,1.227-139.917c0,3.277,0,6.542,0,9.818c0,12.273,0,24.547,0,36.82c0,2.455,0,4.91,0,7.364
			C214.809,214.543,214.809,234.991,214.809,255.451z"/>
		<path fill="#4B6C97" d="M201.309,136.398c0,139.107,0,278.201,0,417.296c-2.835-3.719-0.43-12.653-1.228-18.41
			c0-5.731,0-11.451,0-17.183c0-8.996,0-18.005,0-27.002c0-2.859,0-5.731,0-8.591c0-12.273,0-24.547,0-36.82
			c0-12.679,0-25.369,0-38.048c0-8.996,0-18.005,0-27.001c0-18.41,0-36.82,0-55.23c0-11.451,0-22.915,0-34.366
			c0-3.682,0-7.364,0-11.046c0-8.187,0-16.361,0-24.547c0-20.46,0-40.907,0-61.367c0-2.455,0-4.91,0-7.364
			c0-12.273,0-24.547,0-36.82C200.854,145.763,198.498,138.497,201.309,136.398z"/>
	</g>
	<g>
		<path fill="none" stroke="#1B1464" d="M201.309,136.398c0.7-6.259,3.608-10.31,6.137-14.728"/>
		<path fill="none" stroke="#1B1464" d="M225.855,578.241c-13.955-2.001-21.43-10.481-24.547-23.319"/>
		<path fill="none" stroke="#1B1464" d="M478.688,554.922c-3.276,12.679-10.481,21.43-24.547,23.319"/>
		<path fill="none" stroke="#1B1464" d="M225.855,111.852c-8.493,0.92-13.255,5.56-18.41,9.819"/>
	</g>
</g>
</svg>
