<?xml version="1.0" encoding="UTF-8" standalone="no"?>
<!-- Created with Inkscape (http://www.inkscape.org/) -->
<svg
   xmlns:dc="http://purl.org/dc/elements/1.1/"
   xmlns:cc="http://creativecommons.org/ns#"
   xmlns:rdf="http://www.w3.org/1999/02/22-rdf-syntax-ns#"
   xmlns:svg="http://www.w3.org/2000/svg"
   xmlns="http://www.w3.org/2000/svg"
   xmlns:sodipodi="http://sodipodi.sourceforge.net/DTD/sodipodi-0.dtd"
   xmlns:inkscape="http://www.inkscape.org/namespaces/inkscape"
   width="644.00018"
   height="643.99994"
   id="svg7242"
   sodipodi:version="0.32"
   inkscape:version="0.46"
   sodipodi:docbase="/home/cjohn/GRAPHIC/MPI_LOGOS"
   sodipodi:docname="mpi_blue_no_background.svg"
   inkscape:output_extension="org.inkscape.output.svg.inkscape"
   version="1.0">
  <defs
     id="defs7244">
    <inkscape:perspective
       sodipodi:type="inkscape:persp3d"
       inkscape:vp_x="0 : 526.18109 : 1"
       inkscape:vp_y="0 : 1000 : 0"
       inkscape:vp_z="744.09448 : 526.18109 : 1"
       inkscape:persp3d-origin="372.04724 : 350.78739 : 1"
       id="perspective25" />
  </defs>
  <sodipodi:namedview
     id="base"
     pagecolor="#f11515"
     bordercolor="#ffffff"
     borderopacity="0.0"
     inkscape:pageopacity="0"
     inkscape:pageshadow="0"
     inkscape:zoom="0.76708082"
     inkscape:cx="322.00009"
     inkscape:cy="321.99997"
     inkscape:document-units="px"
     inkscape:current-layer="layer1"
     inkscape:window-width="1600"
     inkscape:window-height="1175"
     inkscape:window-x="1600"
     inkscape:window-y="0"
     showgrid="false" />
  <metadata
     id="metadata7247">
    <rdf:RDF>
      <cc:Work
         rdf:about="">
        <dc:format>image/svg+xml</dc:format>
        <dc:type
           rdf:resource="http://purl.org/dc/dcmitype/StillImage" />
      </cc:Work>
    </rdf:RDF>
  </metadata>
  <g
     inkscape:groupmode="layer"
     id="layer2"
     inkscape:label="background" />
  <g
     inkscape:label="Layer 1"
     inkscape:groupmode="layer"
     id="layer1"
     transform="translate(840.63916,116.7879)">
    <path
       id="path16"
       style="font-style:normal;font-variant:normal;font-weight:normal;font-stretch:normal;letter-spacing:normal;word-spacing:normal;text-anchor:start;fill:none;fill-opacity:1;stroke:#5467c7;stroke-width:12.27456665000000058;stroke-linecap:butt;stroke-linejoin:miter;stroke-miterlimit:10.43299960999999954;stroke-dasharray:none;stroke-dashoffset:0;stroke-opacity:1"
       d="M -299.60628,200.90572 L -299.94168,212.19809 L -300.78024,223.32275 L -302.17782,234.33562 L -304.07851,245.12485 L -306.53822,255.69049 L -309.50109,266.14432 L -312.91116,276.31863 L -316.86348,286.26934 L -321.25185,295.94052 L -326.09303,305.444 L -331.37586,314.61204 L -337.07795,323.5006 L -343.1881,332.10965 L -349.69522,340.38327 L -356.58803,348.32147 L -363.84419,355.92423 L -371.45816,363.1916 L -379.41313,370.06767 L -387.69793,376.60827 L -396.29021,382.70169 L -405.18433,388.40377 L -414.36919,393.65865 L -423.82234,398.52217 L -433.53267,402.8826 L -443.48335,406.8517 L -453.66886,410.2618 L -464.0724,413.22464 L -474.67716,415.68435 L -485.472,417.58506 L -496.44571,418.98262 L -507.57597,419.82118 L -518.85716,420.15657 C -639.9203,420.15657 -738.08006,321.99124 -738.08006,200.90572 C -738.08006,79.820204 -639.9203,-18.289228 -518.85716,-18.289228 C -397.79399,-18.289228 -299.60628,79.820204 -299.60628,200.90572 z" />
    <line
       id="line18"
       style="font-style:normal;font-variant:normal;font-weight:normal;font-stretch:normal;letter-spacing:normal;word-spacing:normal;text-anchor:start;fill:none;fill-opacity:1;stroke:#5467c7;stroke-width:10.04292964999999960;stroke-linecap:butt;stroke-linejoin:miter;stroke-miterlimit:10.43299960999999954;stroke-dasharray:none;stroke-dashoffset:0;stroke-opacity:1"
       y2="265.92065"
       x2="-246.55449"
       y1="265.92065"
       x1="-706.78558" />
    <line
       id="line20"
       style="font-style:normal;font-variant:normal;font-weight:normal;font-stretch:normal;letter-spacing:normal;word-spacing:normal;text-anchor:start;fill:none;fill-opacity:1;stroke:#5467c7;stroke-width:4.46327353000000038;stroke-linecap:butt;stroke-linejoin:miter;stroke-miterlimit:10.43299960999999954;stroke-dasharray:none;stroke-dashoffset:0;stroke-opacity:1"
       y2="278.66641"
       x2="-600.48645"
       y1="278.66641"
       x1="-664.53424" />
    <line
       id="line22"
       style="font-style:normal;font-variant:normal;font-weight:normal;font-stretch:normal;letter-spacing:normal;word-spacing:normal;text-anchor:start;fill:none;fill-opacity:1;stroke:#5467c7;stroke-width:4.46327353000000038;stroke-linecap:butt;stroke-linejoin:miter;stroke-miterlimit:10.43299960999999954;stroke-dasharray:none;stroke-dashoffset:0;stroke-opacity:1"
       y2="278.66641"
       x2="-263.38123"
       y1="278.66641"
       x1="-479.31152" />
    <path
       id="path24"
       style="font-style:normal;font-variant:normal;font-weight:normal;font-stretch:normal;letter-spacing:normal;word-spacing:normal;text-anchor:start;fill:none;fill-opacity:1;stroke:#5467c7;stroke-width:7.81129265000000039;stroke-linecap:butt;stroke-linejoin:miter;stroke-miterlimit:10.43299960999999954;stroke-dasharray:none;stroke-dashoffset:0;stroke-opacity:1"
       d="M -346.63172,128.62339 L -348.66101,127.2258 L -350.74617,125.88415 L -352.88166,124.59836 L -355.07304,123.4244 L -357.30916,122.36225 L -359.5956,121.35602 L -361.92116,120.40566 L -364.29703,119.62304 L -366.70644,118.84038 L -369.16058,118.22545 L -371.64824,117.66642 L -374.17506,117.21919 L -376.72979,116.8279 L -379.31811,116.60427 L -381.93995,116.43657 L -384.58417,116.38067 C -401.98669,116.38067 -417.79603,123.2008 -429.47969,134.32547 C -441.14104,145.50603 -456.95035,152.32617 -474.3529,152.32617 C -491.53743,152.32617 -507.17347,145.67373 -518.79006,134.7727 C -530.42902,123.92753 -546.04269,117.27509 -563.23282,117.27509 C -580.63537,117.27509 -596.44468,124.09526 -608.12837,135.21993 C -619.78969,146.34456 -635.599,153.22063 -653.00155,153.22063 C -670.18607,153.22063 -685.82209,146.51229 -697.43871,135.66712 C -709.08327,124.76609 -724.69134,118.11365 -741.88146,118.11365 C -757.53425,118.11365 -771.90686,123.64803 -783.13215,132.87198" />
    <path
       id="path26"
       style="font-style:normal;font-variant:normal;font-weight:normal;font-stretch:normal;letter-spacing:normal;word-spacing:normal;text-anchor:start;fill:none;fill-opacity:1;stroke:#5467c7;stroke-width:7.81129265000000039;stroke-linecap:butt;stroke-linejoin:miter;stroke-miterlimit:10.43299960999999954;stroke-dasharray:none;stroke-dashoffset:0;stroke-opacity:1"
       d="M -557.704,374.42806 L -562.04208,370.29127 L -566.2795,366.09857 L -570.40513,361.79404 L -574.41895,357.32182 L -578.32658,352.84959 L -582.11677,348.20964 L -585.79519,343.45791 L -589.35619,338.65026 L -592.7942,333.78673 L -596.11485,328.75548 L -599.30689,323.66833 L -602.37596,318.52524 L -605.31085,313.27039 L -608.12277,307.95964 L -610.79494,302.53706 L -613.3385,297.05857 L -615.73674,291.46829 L -618.0008,285.82211 L -620.12512,280.12003 L -622.10408,274.36201 L -623.93769,268.54813 L -625.62034,262.62242 L -627.15768,256.64084 L -628.53849,250.65923 L -629.76834,244.56582 L -630.83607,238.41651 L -631.74731,232.2113 L -632.50198,226.00609 L -633.08896,219.68908 L -633.51384,213.37204 L -633.76539,206.99913 L -633.84924,200.57029 C -633.84924,144.33208 -614.24413,92.733752 -581.50744,52.148324" />
    <polygon
       id="polygon28"
       style="font-style:normal;font-variant:normal;font-weight:normal;font-stretch:normal;letter-spacing:normal;word-spacing:normal;text-anchor:start;fill:#5467c7;fill-opacity:1;fill-rule:nonzero;stroke:#5467c7;stroke-width:0;stroke-linecap:butt;stroke-linejoin:miter;stroke-miterlimit:10.43299960999999954;stroke-dasharray:none;stroke-dashoffset:0;stroke-opacity:1"
       points="56.707,493.73 52.727,484.53 52.168,489.02 48.043,489.02 56.707,493.73 "
       transform="matrix(5.5902819,0,0,-5.5902819,-874.34461,2787.528)" />
    <path
       id="path30"
       style="font-style:normal;font-variant:normal;font-weight:normal;font-stretch:normal;letter-spacing:normal;word-spacing:normal;text-anchor:start;fill:none;fill-opacity:1;stroke:#5467c7;stroke-width:7.81129265000000039;stroke-linecap:butt;stroke-linejoin:miter;stroke-miterlimit:10.43299960999999954;stroke-dasharray:none;stroke-dashoffset:0;stroke-opacity:1"
       d="M -482.21285,29.675397 L -477.88037,33.756294 L -473.64295,38.004921 L -469.51733,42.309415 L -465.50351,46.725741 L -461.59588,51.253866 L -457.80569,55.837923 L -454.12726,60.589647 L -450.57184,65.397302 L -447.12822,70.316725 L -443.81318,75.292079 L -440.62113,80.379232 L -437.55767,85.522317 L -434.61718,90.777169 L -431.81086,96.087953 L -429.13312,101.5105 L -426.59513,106.98899 L -424.19689,112.57927 L -421.93283,118.22545 L -419.80852,123.92753 L -417.83516,129.68554 L -416.00155,135.55532 L -414.31886,141.42514 L -412.78152,147.40672 L -411.40075,153.44423 L -410.17646,159.48174 L -409.10313,165.63105 L -408.19193,171.83626 L -407.44282,178.09737 L -406.85584,184.35848 L -406.43096,190.73142 L -406.17941,197.10433 L -406.08996,203.53317 C -406.08996,259.71548 -425.67833,311.31381 -458.41501,351.89924" />
    <polygon
       id="polygon32"
       style="font-style:normal;font-variant:normal;font-weight:normal;font-stretch:normal;letter-spacing:normal;word-spacing:normal;text-anchor:start;fill:#5467c7;fill-opacity:1;fill-rule:nonzero;stroke:#5467c7;stroke-width:0;stroke-linecap:butt;stroke-linejoin:miter;stroke-miterlimit:10.43299960999999954;stroke-dasharray:none;stroke-dashoffset:0;stroke-opacity:1"
       points="70.074,431.27 74.059,440.47 74.617,435.98 78.742,435.98 70.074,431.27 "
       transform="matrix(5.5902819,0,0,-5.5902819,-874.34461,2787.528)" />
    <path
       id="path34"
       style="font-style:normal;font-variant:normal;font-weight:normal;font-stretch:normal;letter-spacing:normal;word-spacing:normal;text-anchor:start;fill:none;fill-opacity:1;stroke:#5467c7;stroke-width:5.39237928000000011;stroke-linecap:butt;stroke-linejoin:miter;stroke-miterlimit:10.43299960999999954;stroke-dasharray:none;stroke-dashoffset:0;stroke-opacity:1"
       d="M -424.30312,220.58351 L -424.20249,221.03074 L -424.12422,221.47797 L -424.06832,221.9252 L -424.03476,222.37239 L -424.01799,222.81962 L -424.02919,223.26685 L -424.05714,223.65818 L -424.10744,224.10541 L -424.17454,224.55261 L -424.26396,224.94394 L -424.37019,225.33526 L -424.49877,225.78246 L -424.64412,226.17379 L -424.80622,226.56512 L -424.98512,226.90052 L -425.18637,227.29185 L -425.3988,227.62728 L -425.628,228.01857 L -425.87958,228.2981 L -426.1423,228.63353 L -426.41623,228.96893 L -426.7125,229.24846 L -427.01998,229.52796 L -427.33864,229.80749 L -427.67403,230.03109 L -428.02624,230.25472 L -428.38402,230.47832 L -428.75857,230.70192 L -429.1443,230.86965 L -429.5468,231.03735 L -429.95487,231.14915 L -430.37415,231.26094 L -473.06715,242.05021 C -477.62883,243.22417 -482.3023,240.31723 -483.50421,235.56547 L -484.46574,231.76407 C -485.66765,227.01235 -482.93401,222.20469 -478.37233,221.08664 L -435.70168,210.2974 C -431.14003,209.12345 -426.46656,212.03039 -425.26462,216.78211 L -424.30312,220.58351 z" />
    <path
       id="path36"
       style="font-style:normal;font-variant:normal;font-weight:normal;font-stretch:normal;letter-spacing:normal;word-spacing:normal;text-anchor:start;fill:#ffffff;fill-opacity:1;fill-rule:nonzero;stroke:#000000;stroke-width:0;stroke-linecap:butt;stroke-linejoin:miter;stroke-miterlimit:10.43299961;stroke-dasharray:none;stroke-dashoffset:0;stroke-opacity:1"
       d="M -527.52769,292.47455 L -527.48296,292.97768 L -527.46058,293.42491 L -527.46058,293.8721 L -527.48296,294.26343 L -527.52769,294.71066 L -527.58916,295.15789 L -527.67304,295.60509 L -527.77924,295.99642 L -527.90224,296.38775 L -528.04199,296.83497 L -528.19851,297.22627 L -528.37739,297.5617 L -528.57307,297.95303 L -528.77989,298.34433 L -529.00909,298.67976 L -529.25507,299.01519 L -529.51222,299.35058 L -529.78615,299.63012 L -530.07125,299.96551 L -530.37312,300.24504 L -530.68618,300.52454 L -531.016,300.74817 L -531.35704,301.02767 L -531.70921,301.2513 L -532.07259,301.419 L -532.44711,301.6426 L -532.83287,301.81033 L -533.22977,301.92213 L -533.63784,302.03393 L -534.05155,302.14573 L -534.4764,302.25753 L -534.90685,302.31342 L -578.62845,307.56831 C -583.30193,308.12734 -587.55613,304.66137 -588.14871,299.79781 L -588.60711,295.88462 C -589.19409,291.02106 -585.89582,286.66064 -581.22234,286.10161 L -537.52869,280.79086 C -532.85522,280.23183 -528.57307,283.6978 -528.00844,288.56135 L -527.52769,292.47455 z" />
    <path
       id="path38"
       style="font-style:normal;font-variant:normal;font-weight:normal;font-stretch:normal;letter-spacing:normal;word-spacing:normal;text-anchor:start;fill:#5467c7;fill-opacity:1;stroke:#5467c7;stroke-width:5.39237928000000011;stroke-linecap:butt;stroke-linejoin:miter;stroke-miterlimit:10.43299960999999954;stroke-dasharray:none;stroke-dashoffset:0;stroke-opacity:1"
       d="M -527.52769,292.47455 L -527.48296,292.97768 L -527.46058,293.42491 L -527.46058,293.8721 L -527.48296,294.26343 L -527.52769,294.71066 L -527.58916,295.15789 L -527.67304,295.60509 L -527.77924,295.99642 L -527.90224,296.38775 L -528.04199,296.83497 L -528.19851,297.22627 L -528.37739,297.5617 L -528.57307,297.95303 L -528.77989,298.34433 L -529.00909,298.67976 L -529.25507,299.01519 L -529.51222,299.35058 L -529.78615,299.63012 L -530.07125,299.96551 L -530.37312,300.24504 L -530.68618,300.52454 L -531.016,300.74817 L -531.35704,301.02767 L -531.70921,301.2513 L -532.07259,301.419 L -532.44711,301.6426 L -532.83287,301.81033 L -533.22977,301.92213 L -533.63784,302.03393 L -534.05155,302.14573 L -534.4764,302.25753 L -534.90685,302.31342 L -578.62845,307.56831 C -583.30193,308.12734 -587.55613,304.66137 -588.14871,299.79781 L -588.60711,295.88462 C -589.19409,291.02106 -585.89582,286.66064 -581.22234,286.10161 L -537.52869,280.79086 C -532.85522,280.23183 -528.57307,283.6978 -528.00844,288.56135 L -527.52769,292.47455 z" />
    <path
       id="path40"
       style="font-style:normal;font-variant:normal;font-weight:normal;font-stretch:normal;letter-spacing:normal;word-spacing:normal;text-anchor:start;fill:none;fill-opacity:1;stroke:#5467c7;stroke-width:5.39237928000000011;stroke-linecap:butt;stroke-linejoin:miter;stroke-miterlimit:10.43299960999999954;stroke-dasharray:none;stroke-dashoffset:0;stroke-opacity:1"
       d="M -486.73537,236.79533 L -486.3776,237.07486 L -486.0366,237.41025 L -485.71794,237.68978 L -485.4161,238.02518 L -485.13096,238.36061 L -484.86264,238.69604 L -484.61109,239.08734 L -484.38189,239.42277 L -484.17504,239.8141 L -483.97939,240.1495 L -483.80609,240.54083 L -483.65513,240.93215 L -483.52099,241.37935 L -483.40358,241.77068 L -483.30856,242.16201 L -483.23588,242.55331 L -483.17998,243.00054 L -483.14083,243.39187 L -483.12405,243.83909 L -483.12966,244.23042 L -483.152,244.67762 L -483.19673,245.06895 L -483.26383,245.46028 L -483.34768,245.90751 L -483.45388,246.29881 L -483.58246,246.69014 L -483.73341,247.08146 L -483.90111,247.47276 L -484.09119,247.86409 L -484.30361,248.25542 L -484.53842,248.59082 L -484.78996,248.92625 L -511.28232,284.08912 C -514.11658,287.89052 -519.57829,288.50545 -523.48591,285.59848 L -526.63323,283.19467 C -530.54082,280.28773 -531.41293,274.80924 -528.59541,271.06378 L -502.08632,235.9009 C -499.2688,232.1554 -493.79031,231.48458 -489.88272,234.44741 L -486.73537,236.79533 z" />
    <path
       id="path42"
       style="font-style:normal;font-variant:normal;font-weight:normal;font-stretch:normal;letter-spacing:normal;word-spacing:normal;text-anchor:start;fill:#ffffff;fill-opacity:1;fill-rule:nonzero;stroke:#000000;stroke-width:0;stroke-linecap:butt;stroke-linejoin:miter;stroke-miterlimit:10.43299961;stroke-dasharray:none;stroke-dashoffset:0;stroke-opacity:1"
       d="M -497.43519,265.69709 L -511.28232,284.08912 C -514.11658,287.89052 -519.57829,288.50545 -523.48591,285.59848 L -526.63323,283.19467 C -530.54082,280.28773 -531.41293,274.80924 -528.59541,271.06378 L -524.62071,265.80889 L -497.43519,265.69709 z" />
    <path
       id="path44"
       style="font-style:normal;font-variant:normal;font-weight:normal;font-stretch:normal;letter-spacing:normal;word-spacing:normal;text-anchor:start;fill:#5467c7;fill-opacity:1;stroke:#5467c7;stroke-width:2.23163676000000022;stroke-linecap:butt;stroke-linejoin:miter;stroke-miterlimit:10.43299960999999954;stroke-dasharray:none;stroke-dashoffset:0;stroke-opacity:1"
       d="M -497.43519,265.69709 L -511.28232,284.08912 C -514.11658,287.89052 -519.57829,288.50545 -523.48591,285.59848 L -526.63323,283.19467 C -530.54082,280.28773 -531.41293,274.80924 -528.59541,271.06378 L -524.62071,265.80889 L -497.43519,265.69709 z" />
  </g>
</svg>
