<?xml version="1.0" encoding="UTF-8" standalone="no"?>
<!-- Created with Inkscape (http://www.inkscape.org/) -->
<svg
   xmlns:svg="http://www.w3.org/2000/svg"
   xmlns="http://www.w3.org/2000/svg"
   version="1.0"
   width="123.38"
   height="152.11"
   id="svg2650">
  <defs
     id="defs2652">
    <clipPath
       id="clipPath2496">
      <path
         d="M 257.515,572.598 L 162.013,572.598 L 162.013,454.11 L 257.515,454.11 L 257.515,572.598 z"
         id="path2498" />
    </clipPath>
    <clipPath
       id="clipPath2536">
      <path
         d="M 257.515,572.598 L 162.013,572.598 L 162.013,454.11 L 257.515,454.11 L 257.515,572.598 z"
         id="path2538" />
    </clipPath>
  </defs>
  <g
     transform="translate(-440.31212,-589.7358)"
     id="layer1">
    <g
       transform="matrix(1.25,0,0,-1.25,451.95788,714.7845)"
       id="g2472">
      <path
         d="M 0,0 L 5.853,0 L 9.928,-14.186 L 13.941,0 L 19.622,0 L 12.904,-19.713 L 6.841,-19.713 L 0,0"
         id="path2474"
         style="fill:#0067a5;fill-opacity:1;fill-rule:evenodd;stroke:none" />
    </g>
    <g
       transform="matrix(1.25,0,0,-1.25,478.87663,714.7845)"
       id="g2476">
      <path
         d="M 0,0 L 8.311,0 C 9.949,0 11.27,-0.242 12.274,-0.726 C 13.287,-1.21 14.122,-1.905 14.781,-2.81 C 15.439,-3.716 15.917,-4.769 16.213,-5.97 C 16.51,-7.172 16.658,-8.444 16.658,-9.789 C 16.658,-11.896 16.436,-13.532 15.991,-14.697 C 15.555,-15.853 14.945,-16.826 14.163,-17.615 C 13.381,-18.395 12.542,-18.915 11.645,-19.175 C 10.418,-19.534 9.307,-19.713 8.311,-19.713 L 0,-19.713 L 0,0 z M 5.594,-4.464 L 5.594,-15.235 L 6.964,-15.235 C 8.133,-15.235 8.964,-15.096 9.459,-14.818 C 9.953,-14.531 10.34,-14.039 10.62,-13.339 C 10.899,-12.631 11.039,-11.488 11.04,-9.91 C 11.04,-7.822 10.726,-6.392 10.101,-5.62 C 9.475,-4.85 8.438,-4.464 6.989,-4.464 L 5.594,-4.464"
         id="path2478"
         style="fill:#0067a5;fill-opacity:1;fill-rule:evenodd;stroke:none" />
    </g>
    <g
       transform="matrix(1.25,0,0,-1.25,502.15413,731.27325)"
       id="g2480">
      <path
         d="M 0,0 L 5.322,0.363 C 5.437,-0.578 5.672,-1.296 6.026,-1.788 C 6.602,-2.586 7.425,-2.985 8.496,-2.985 C 9.294,-2.985 9.907,-2.783 10.336,-2.38 C 10.771,-1.968 10.99,-1.493 10.99,-0.955 C 10.99,-0.444 10.784,0.013 10.373,0.417 C 9.961,0.82 9.006,1.201 7.508,1.56 C 5.054,2.16 3.305,2.958 2.26,3.953 C 1.206,4.948 0.679,6.217 0.679,7.759 C 0.679,8.771 0.947,9.726 1.482,10.623 C 2.025,11.528 2.836,12.236 3.914,12.747 C 5.001,13.267 6.487,13.527 8.372,13.527 C 10.685,13.527 12.447,13.057 13.657,12.115 C 14.876,11.183 15.6,9.695 15.831,7.651 L 10.558,7.315 C 10.418,8.202 10.121,8.848 9.669,9.251 C 9.224,9.655 8.607,9.856 7.817,9.856 C 7.166,9.856 6.676,9.704 6.347,9.399 C 6.017,9.103 5.853,8.74 5.853,8.31 C 5.853,7.996 5.989,7.714 6.261,7.463 C 6.524,7.203 7.149,6.961 8.138,6.737 C 10.583,6.163 12.332,5.58 13.386,4.989 C 14.448,4.406 15.217,3.68 15.695,2.81 C 16.18,1.941 16.423,0.968 16.423,-0.107 C 16.423,-1.371 16.102,-2.537 15.46,-3.604 C 14.818,-4.67 13.92,-5.482 12.768,-6.038 C 11.616,-6.584 10.163,-6.857 8.409,-6.858 C 5.33,-6.858 3.198,-6.212 2.013,-4.922 C 0.827,-3.631 0.156,-1.99 0,0"
         id="path2482"
         style="fill:#0067a5;fill-opacity:1;fill-rule:evenodd;stroke:none" />
    </g>
    <g
       transform="matrix(1.25,0,0,-1.25,524.61163,714.7845)"
       id="g2484">
      <path
         d="M 0,0 L 17.004,0 L 17.004,-4.868 L 11.299,-4.868 L 11.299,-19.713 L 5.705,-19.713 L 5.705,-4.868 L 0,-4.868 L 0,0"
         id="path2486"
         style="fill:#0067a5;fill-opacity:1;fill-rule:evenodd;stroke:none" />
    </g>
    <g
       transform="matrix(1.25,0,0,-1.25,518.85913,673.277)"
       id="g2488">
      <path
         d="M 0,0 C 0,0 3.443,17.319 4.041,19.51 C 4.639,21.702 6.237,27.298 11.639,22.494 C 11.639,22.494 14.641,30.31 22.832,32.9 C 22.832,32.9 16.288,42.721 5.635,33.701 C 0.432,29.295 -4.349,12.692 -4.349,12.692 L -15.552,5.868 L -15.552,-0.777 L -3.553,6.439 L -3.553,4.225 L -15.525,-2.91 L -15.53,-9.381 L 0,0"
         id="path2490"
         style="fill:#0067a5;fill-opacity:1;fill-rule:evenodd;stroke:none" />
    </g>
    <g
       transform="matrix(1.25,0,0,-1.25,239.79538,1307.4833)"
       id="g2492">
      <g
         clip-path="url(#clipPath2496)"
         id="g2494">
        <g
           transform="translate(206.168,497.093)"
           id="g2500">
          <path
             d="M 0,0 L 0,15.304 C 0,15.304 -21.716,2.141 -22.523,1.508 C -23.129,1.034 -25.188,-0.666 -25.071,-2.756 L -28.581,-4.897 L -31.449,0.232 L -31.971,-0.058 L -29.103,-5.187 L -43.274,-13.764 C -43.274,-13.764 -44.713,-15.178 -43.912,-16.722 C -43.1,-18.288 -41.07,-17.653 -40.987,-17.534 C -40.732,-17.173 -23.162,-6.971 -23.162,-6.971 C -23.162,-6.971 -19.388,-11.648 -12.17,-7.414 C -11.9,-7.257 0,0 0,0"
             id="path2502"
             style="fill:#0067a5;fill-opacity:1;fill-rule:evenodd;stroke:none" />
        </g>
      </g>
    </g>
    <g
       transform="matrix(1.25,0,0,-1.25,462.06288,691.2145)"
       id="g2504">
      <path
         d="M 0,0 L 2.846,1.675 C 2.846,1.675 2.635,3.849 5.566,5.922 C 5.566,5.922 5.004,7.729 3.407,8.12 C 1.767,8.522 0.887,8.332 -0.477,7.296 C -1.701,6.367 -1.827,4.538 -1.827,4.538 L -4.856,9.827 L -5.436,9.479 L 0,0"
         id="path2506"
         style="fill:#0067a5;fill-opacity:1;fill-rule:evenodd;stroke:none" />
    </g>
    <g
       transform="matrix(1.25,0,0,-1.25,494.65413,599.97075)"
       id="g2508">
      <path
         d="M 0,0 C 0,1.846 1.496,3.342 3.343,3.342 C 5.189,3.342 6.685,1.846 6.685,0 C 6.685,-1.846 5.189,-3.343 3.343,-3.343 C 1.496,-3.343 0,-1.846 0,0 z"
         id="path2510"
         style="fill:none;stroke:#0067a5;stroke-width:0.74400002;stroke-linecap:butt;stroke-linejoin:miter;stroke-miterlimit:3.86400008;stroke-dasharray:none;stroke-opacity:1" />
      <g
         transform="translate(-6.564,-11.295)"
         id="g2512">
        <path
           d="M 0,0 C 0,1.565 1.268,2.833 2.833,2.833 C 4.397,2.833 5.666,1.565 5.666,0 C 5.666,-1.565 4.397,-2.833 2.833,-2.833 C 1.268,-2.833 0,-1.565 0,0 z"
           id="path2514"
           style="fill:none;stroke:#0067a5;stroke-width:0.74400002;stroke-linecap:butt;stroke-linejoin:miter;stroke-miterlimit:3.86400008;stroke-dasharray:none;stroke-opacity:1" />
        <g
           transform="translate(-14.528,8.286)"
           id="g2516">
          <path
             d="M 0,0 C 0,1.749 1.418,3.167 3.167,3.167 C 4.916,3.167 6.333,1.749 6.333,0 C 6.333,-1.749 4.916,-3.167 3.167,-3.167 C 1.418,-3.167 0,-1.749 0,0 z"
             id="path2518"
             style="fill:none;stroke:#0067a5;stroke-width:0.74400002;stroke-linecap:butt;stroke-linejoin:miter;stroke-miterlimit:3.86400008;stroke-dasharray:none;stroke-opacity:1" />
        </g>
      </g>
    </g>
    <g
       transform="matrix(1.25,0,0,-1.25,472.11038,628.037)"
       id="g2520">
      <path
         d="M 0,0 C 0,0.885 0.717,1.601 1.601,1.601 C 2.486,1.601 3.203,0.885 3.203,0 C 3.203,-0.885 2.486,-1.601 1.601,-1.601 C 0.717,-1.601 0,-0.885 0,0 z"
         id="path2522"
         style="fill:none;stroke:#0067a5;stroke-width:0.53100002;stroke-linecap:butt;stroke-linejoin:miter;stroke-miterlimit:3.86400008;stroke-dasharray:none;stroke-opacity:1" />
      <g
         transform="translate(3.027,-5.472)"
         id="g2524">
        <path
           d="M 0,0 C 0,0.874 0.709,1.583 1.583,1.583 C 2.458,1.583 3.167,0.874 3.167,0 C 3.167,-0.874 2.458,-1.583 1.583,-1.583 C 0.709,-1.583 0,-0.874 0,0 z"
           id="path2526"
           style="fill:none;stroke:#0067a5;stroke-width:0.53100002;stroke-linecap:butt;stroke-linejoin:miter;stroke-miterlimit:3.86400008;stroke-dasharray:none;stroke-opacity:1" />
        <g
           transform="translate(-1.972,-5.12)"
           id="g2528">
          <path
             d="M 0,0 C 0,0.593 0.481,1.074 1.074,1.074 C 1.667,1.074 2.147,0.593 2.147,0 C 2.147,-0.593 1.667,-1.074 1.074,-1.074 C 0.481,-1.074 0,-0.593 0,0 z"
             id="path2530"
             style="fill:none;stroke:#0067a5;stroke-width:0.53100002;stroke-linecap:butt;stroke-linejoin:miter;stroke-miterlimit:3.86400008;stroke-dasharray:none;stroke-opacity:1" />
        </g>
      </g>
    </g>
    <g
       transform="matrix(1.25,0,0,-1.25,239.79538,1307.4833)"
       id="g2532">
      <g
         clip-path="url(#clipPath2536)"
         id="g2534">
        <g
           transform="translate(224.284,537.409)"
           id="g2540">
          <path
             d="M 0,0 L -5.154,-3.099 L -5.154,3.546 L 6.049,10.369 C 6.049,10.369 10.83,26.973 16.033,31.378 C 26.686,40.399 33.23,30.577 33.23,30.577 C 25.039,27.987 22.037,20.172 22.037,20.172 C 16.636,24.976 15.037,19.38 14.44,17.188 C 14.183,16.247 13.401,12.516 12.593,8.564 C 10.073,8.642 7.028,7.708 3.544,4.757 C 2.32,3.721 1.12,2.011 0,0"
             id="path2542"
             style="fill:#0067a5;fill-opacity:1;fill-rule:evenodd;stroke:none" />
        </g>
      </g>
    </g>
    <g
       transform="matrix(1.25,0,0,-1.25,513.97538,650.207)"
       id="g2544">
      <path
         d="M 0,0 L -0.191,-0.116 L -0.186,6.356 L 3.363,8.471 C 2.014,5.567 0.851,2.462 0,0"
         id="path2546"
         style="fill:#0067a5;fill-opacity:1;fill-rule:evenodd;stroke:none" />
    </g>
    <g
       transform="matrix(1.25,0,0,-1.25,511.79288,651.4645)"
       id="g2548">
      <path
         d="M 0,0 C 0,0 -11.9,-7.256 -12.17,-7.414 C -19.388,-11.649 -23.162,-6.971 -23.162,-6.971 C -23.162,-6.971 -40.732,-17.173 -40.987,-17.534 C -41.07,-17.653 -43.1,-18.288 -43.912,-16.722 C -44.713,-15.177 -43.274,-13.764 -43.274,-13.764 L -29.103,-5.187 L -31.971,-0.058 L -31.449,0.232 L -28.581,-4.897 L -25.071,-2.756 C -25.188,-0.666 -23.129,1.034 -22.523,1.508 C -21.716,2.141 0,15.305 0,15.305 L 0,0"
         id="path2550"
         style="fill:#0067a5;fill-opacity:1;fill-rule:evenodd;stroke:none" />
    </g>
    <g
       transform="matrix(1.25,0,0,-1.25,476.35288,656.56325)"
       id="g2552">
      <path
         d="M 0,0 L -5.436,9.479 L -4.856,9.827 L -1.827,4.538 C -1.827,4.538 -1.701,6.368 -0.477,7.297 C 0.887,8.332 1.767,8.522 3.407,8.12 C 5.004,7.73 5.566,5.922 5.566,5.922 C 2.635,3.849 2.846,1.675 2.846,1.675 L 0,0"
         id="path2554"
         style="fill:#0067a5;fill-opacity:1;fill-rule:evenodd;stroke:none" />
    </g>
    <g
       transform="matrix(1.25,0,0,-1.25,486.51413,635.78575)"
       id="g2556">
      <path
         d="M 0,0 L 18.076,11.047 C 20.089,12.256 22.51,12.154 23.432,10.619 C 24.355,9.084 23.331,7.079 21.318,5.869 L 3.242,-5.177 C 1.229,-6.387 -1.011,-6.343 -1.933,-4.807 L -1.933,-4.807 C -2.856,-3.272 -2.013,-1.21 0,0 z"
         id="path2558"
         style="fill:none;stroke:#0067a5;stroke-width:1.27499998;stroke-linecap:butt;stroke-linejoin:miter;stroke-miterlimit:3.86400008;stroke-dasharray:none;stroke-opacity:1" />
    </g>
  </g>
</svg>
